<svg width="64" height="64" viewBox="0 0 64 64" fill="none" xmlns="http://www.w3.org/2000/svg">
<path d="M58.886 32.107C59.572 31.251 60 30.18 60 29C60 28.447 59.553 28 59 28H58.974C59.609 27.162 60 26.13 60 25C60 24.447 59.553 24 59 24H58.974C59.609 23.162 60 22.13 60 21C60 20.447 59.553 20 59 20H58.974C59.609 19.162 60 18.13 60 17C60 16.447 59.553 16 59 16C58.447 16 58 16.447 58 17C58 18.654 56.654 20 55 20H49C47.696 20 46.584 19.164 46.171 18H55C55.553 18 56 17.553 56 17C56 16.447 55.553 16 55 16H45C44.447 16 44 16.447 44 17C44 18.13 44.391 19.162 45.026 20H45C44.447 20 44 20.447 44 21C44 22.13 44.391 23.162 45.026 24H45C44.447 24 44 24.447 44 25C44 26.13 44.391 27.162 45.026 28H45C44.72 28 44.468 28.116 44.287 28.301C44.181 28.25 44.071 28.209 43.958 28.171C43.632 24.625 41.24 21.676 38 20.525V20C38 18.346 36.654 17 35 17C33.346 17 32 18.346 32 20V20.525C28.76 21.676 26.368 24.625 26.042 28.171C24.859 28.573 24 29.683 24 31C24 31.352 24.072 31.686 24.184 32H22.443C22.788 31.409 23 30.732 23 30V27C23 26.447 22.553 26 22 26C21.447 26 21 26.447 21 27V30C21 31.103 20.103 32 19 32H9C7.897 32 7 31.103 7 30V24H23C23.553 24 24 23.553 24 23C24 22.447 23.553 22 23 22V21C23 18.794 21.206 17 19 17H17V16C17 14.346 15.654 13 14 13C12.346 13 11 14.346 11 16V17H9C6.794 17 5 18.794 5 21V22C4.447 22 4 22.447 4 23C4 23.553 4.447 24 5 24V30C5 30.749 5.22 31.443 5.579 32.043C3.573 32.256 2 33.938 2 36C2 36.553 2.447 37 3 37C3.553 37 4 36.553 4 36C4 34.897 4.897 34 6 34H58C59.103 34 60 34.897 60 36V40.498C60 41.233 59.61 41.878 58.959 42.22C58.306 42.561 57.555 42.516 56.948 42.096C55.813 41.314 54.31 41.228 53.024 41.87L49.92 43.421C48.09 44.337 45.906 44.335 44.078 43.421L43.052 42.908C40.49 41.628 37.476 41.715 34.992 43.138C33.102 44.219 30.69 44.228 28.544 43.154L28.052 42.908C25.49 41.628 22.477 41.715 19.992 43.138C18.1 44.22 15.689 44.227 13.543 43.154L10.975 41.87C9.69 41.228 8.185 41.313 7.051 42.096C6.445 42.516 5.693 42.561 5.04 42.22C4.39 41.878 4 41.233 4 40.498V40C4 39.447 3.553 39 3 39C2.447 39 2 39.447 2 40V44.498C2 45.955 2.799 47.288 4.083 47.976C4.995 48.465 6.037 48.56 7 48.292V61C7 61.553 7.447 62 8 62H12C12.553 62 13 61.553 13 61V49.114C15.547 50.365 18.531 50.275 20.996 48.868C22.897 47.783 25.2 47.718 27.158 48.697L27.947 49.092C29.153 49.695 30.46 49.994 31.763 49.994C33.225 49.994 34.684 49.618 35.995 48.868C37.184 48.188 38.529 47.902 39.898 48.041C40.46 48.093 40.938 47.696 40.994 47.146C41.05 46.597 40.649 46.106 40.099 46.05C38.325 45.871 36.557 46.243 35.002 47.131C33.102 48.216 30.797 48.281 28.84 47.302L28.051 46.907C25.492 45.629 22.483 45.714 20.002 47.131C18.101 48.216 15.798 48.281 13.84 47.302L10.974 45.869C9.708 45.237 8.196 45.333 7.022 46.115C6.415 46.52 5.668 46.553 5.026 46.212C4.384 45.868 4 45.228 4 44.498V43.921C4.038 43.943 4.073 43.969 4.112 43.99C5.414 44.676 6.976 44.578 8.188 43.742C8.721 43.374 9.447 43.342 10.081 43.659L12.649 44.943C15.397 46.316 18.515 46.292 20.987 44.873C22.89 43.782 25.196 43.715 27.157 44.697L27.649 44.943C30.397 46.316 33.515 46.292 35.987 44.873C37.89 43.782 40.199 43.717 42.158 44.697L43.184 45.21C44.378 45.808 45.689 46.106 46.999 46.106C48.309 46.106 49.62 45.807 50.814 45.21L53.918 43.659C54.555 43.342 55.278 43.373 55.811 43.742C57.023 44.578 58.585 44.676 59.887 43.99C59.926 43.969 59.961 43.943 59.999 43.921V44.498C59.999 45.227 59.615 45.868 58.972 46.213C58.329 46.555 57.582 46.523 56.977 46.116C55.801 45.333 54.289 45.237 53.024 45.87L49.92 47.421C48.09 48.337 45.908 48.337 44.078 47.421C43.584 47.176 42.984 47.374 42.736 47.868C42.489 48.362 42.689 48.963 43.183 49.21C44.377 49.808 45.688 50.106 46.998 50.106C48.308 50.106 49.619 49.807 50.813 49.21L51 49.118V61C51 61.553 51.447 62 52 62H56C56.553 62 57 61.553 57 61V48.292C57.963 48.561 59.006 48.465 59.917 47.976C61.201 47.288 62 45.955 62 44.498V36C62 34.1 60.666 32.512 58.886 32.107ZM13 16C13 15.448 13.448 15 14 15C14.552 15 15 15.448 15 16V17H13V16ZM7 21C7 19.897 7.897 19 9 19H19C20.103 19 21 19.897 21 21V22H7V21ZM46.171 22H57.829C57.416 23.164 56.304 24 55 24H49C47.696 24 46.584 23.164 46.171 22ZM46.171 26H57.829C57.416 27.164 56.304 28 55 28H49C47.696 28 46.584 27.164 46.171 26ZM34 20C34 19.448 34.448 19 35 19C35.552 19 36 19.448 36 20V20.059C35.671 20.022 35.338 20 35 20C34.662 20 34.329 20.022 34 20.059V20ZM35 22C38.519 22 41.432 24.614 41.92 28H28.08C28.568 24.614 31.481 22 35 22ZM27 32C26.448 32 26 31.552 26 31C26 30.448 26.448 30 27 30H43C43.552 30 44 30.448 44 31C44 31.552 43.552 32 43 32H27ZM49 32C47.696 32 46.584 31.164 46.171 30H57.829C57.416 31.164 56.304 32 55 32H49ZM10.081 47.659L11 48.118V60H9V47.475C9.366 47.435 9.742 47.489 10.081 47.659ZM53 60V48.118L53.919 47.659C54.26 47.489 54.635 47.435 55 47.475V60H53Z" fill="#B4C37C"/>
<path d="M17.7931 10.207L18.2931 10.707C18.4881 10.902 18.7441 11 19.0001 11C19.2561 11 19.5121 10.902 19.7071 10.707C20.0981 10.316 20.0981 9.68401 19.7071 9.29301L19.2071 8.79301C18.9951 8.58101 18.8791 8.30001 18.8791 8.00001C18.8791 7.70001 18.9951 7.41901 19.2071 7.20701C20.4241 5.99001 20.4241 4.01001 19.2071 2.79301L18.7071 2.29301C18.3161 1.90201 17.6841 1.90201 17.2931 2.29301C16.9021 2.68401 16.9021 3.31601 17.2931 3.70701L17.7931 4.20701C18.0051 4.41901 18.1211 4.70001 18.1211 5.00001C18.1211 5.30001 18.0051 5.58101 17.7931 5.79301C16.5761 7.01001 16.5761 8.99001 17.7931 10.207Z" fill="#B4C37C"/>
<path d="M13.7931 10.207L14.2931 10.707C14.4881 10.902 14.7441 11 15.0001 11C15.2561 11 15.5121 10.902 15.7071 10.707C16.0981 10.316 16.0981 9.68401 15.7071 9.29301L15.2071 8.79301C14.9951 8.58101 14.8791 8.30001 14.8791 8.00001C14.8791 7.70001 14.9951 7.41901 15.2071 7.20701C16.4241 5.99001 16.4241 4.01001 15.2071 2.79301L14.7071 2.29301C14.3161 1.90201 13.6841 1.90201 13.2931 2.29301C12.9021 2.68401 12.9021 3.31601 13.2931 3.70701L13.7931 4.20701C14.0051 4.41901 14.1211 4.70001 14.1211 5.00001C14.1211 5.30001 14.0051 5.58101 13.7931 5.79301C12.5761 7.01001 12.5761 8.99001 13.7931 10.207Z" fill="#B4C37C"/>
<path d="M9.79312 10.207L10.2931 10.707C10.4881 10.902 10.7441 11 11.0001 11C11.2561 11 11.5121 10.902 11.7071 10.707C12.0981 10.316 12.0981 9.68401 11.7071 9.29301L11.2071 8.79301C10.9951 8.58101 10.8791 8.30001 10.8791 8.00001C10.8791 7.70001 10.9951 7.41901 11.2071 7.20701C12.4241 5.99001 12.4241 4.01001 11.2071 2.79301L10.7071 2.29301C10.3161 1.90201 9.68412 1.90201 9.29312 2.29301C8.90212 2.68401 8.90212 3.31601 9.29312 3.70701L9.79312 4.20701C10.0051 4.41901 10.1211 4.70001 10.1211 5.00001C10.1211 5.30001 10.0051 5.58101 9.79312 5.79301C8.57612 7.01001 8.57612 8.99001 9.79312 10.207Z" fill="#B4C37C"/>
<path d="M37.7931 14.207L38.2931 14.707C38.4881 14.902 38.7441 15 39.0001 15C39.2561 15 39.5121 14.902 39.7071 14.707C40.0981 14.316 40.0981 13.684 39.7071 13.293L39.2071 12.793C38.9951 12.581 38.8791 12.3 38.8791 12C38.8791 11.7 38.9951 11.419 39.2071 11.207C40.4241 9.99001 40.4241 8.01001 39.2071 6.79301L38.7071 6.29301C38.3161 5.90201 37.6841 5.90201 37.2931 6.29301C36.9021 6.68401 36.9021 7.31601 37.2931 7.70701L37.7931 8.20701C38.0051 8.41901 38.1211 8.70001 38.1211 9.00001C38.1211 9.30001 38.0051 9.58101 37.7931 9.79301C36.5761 11.01 36.5761 12.99 37.7931 14.207Z" fill="#B4C37C"/>
<path d="M33.7931 14.207L34.2931 14.707C34.4881 14.902 34.7441 15 35.0001 15C35.2561 15 35.5121 14.902 35.7071 14.707C36.0981 14.316 36.0981 13.684 35.7071 13.293L35.2071 12.793C34.9951 12.581 34.8791 12.3 34.8791 12C34.8791 11.7 34.9951 11.419 35.2071 11.207C36.4241 9.99001 36.4241 8.01001 35.2071 6.79301L34.7071 6.29301C34.3161 5.90201 33.6841 5.90201 33.2931 6.29301C32.9021 6.68401 32.9021 7.31601 33.2931 7.70701L33.7931 8.20701C34.0051 8.41901 34.1211 8.70001 34.1211 9.00001C34.1211 9.30001 34.0051 9.58101 33.7931 9.79301C32.5761 11.01 32.5761 12.99 33.7931 14.207Z" fill="#B4C37C"/>
<path d="M29.7931 14.207L30.2931 14.707C30.4881 14.902 30.7441 15 31.0001 15C31.2561 15 31.5121 14.902 31.7071 14.707C32.0981 14.316 32.0981 13.684 31.7071 13.293L31.2071 12.793C30.9951 12.581 30.8791 12.3 30.8791 12C30.8791 11.7 30.9951 11.419 31.2071 11.207C32.4241 9.99001 32.4241 8.01001 31.2071 6.79301L30.7071 6.29301C30.3161 5.90201 29.6841 5.90201 29.2931 6.29301C28.9021 6.68401 28.9021 7.31601 29.2931 7.70701L29.7931 8.20701C30.0051 8.41901 30.1211 8.70001 30.1211 9.00001C30.1211 9.30001 30.0051 9.58101 29.7931 9.79301C28.5761 11.01 28.5761 12.99 29.7931 14.207Z" fill="#B4C37C"/>
</svg>
