<svg width="104" height="22" viewBox="0 0 104 22" fill="none" xmlns="http://www.w3.org/2000/svg">
<g clip-path="url(#clip0_2538_1103)">
<path d="M32.9183 14.1914C32.7148 14.4896 32.4975 14.6132 32.1433 14.603C31.4123 14.5814 30.6787 14.5992 29.9452 14.5967C29.7028 14.5954 29.5496 14.6629 29.5433 14.9522C29.537 15.2569 29.6651 15.3665 29.9553 15.3639C30.7503 15.3563 31.5467 15.3448 32.3417 15.3741C32.8366 15.392 33.1456 15.1944 33.4257 14.7815C35.1465 12.2452 36.8911 9.72548 38.632 7.2045C38.7576 7.02352 38.8304 6.77753 39.1432 6.69597C41.09 9.52538 43.0444 12.3675 44.9926 15.2008C45.6884 14.8082 45.6972 14.8019 45.3179 14.2487C43.4702 11.5506 41.6012 8.86773 39.7787 6.15302C39.412 5.60626 39.0025 5.41508 38.3757 5.424C36.3447 5.45204 34.3137 5.4291 32.284 5.43802C31.5693 5.44057 30.8709 5.33224 30.17 5.21244C28.7344 4.97028 27.2975 4.73832 25.8593 4.50763C24.4011 4.2744 22.9403 4.05136 21.4808 3.8194C20.187 3.6142 18.8896 3.4192 17.6009 3.18596C17.155 3.10567 16.8975 3.27008 16.6613 3.62312C15.8273 4.86704 14.9783 6.10204 14.1267 7.3345C13.9182 7.63656 13.736 7.96665 13.427 8.22793C13.098 7.78822 12.8053 7.3893 12.5842 6.90244C12.907 6.78518 13.1796 6.84254 13.4434 6.82597C13.996 6.7941 14.2271 6.38626 13.9307 5.92871C12.7588 4.11891 11.5807 2.31292 10.3987 0.509492C10.0985 0.0506686 9.65391 0.0532176 9.35372 0.51459C8.18686 2.30273 7.02376 4.09342 5.8657 5.88793C5.54415 6.38626 5.7627 6.79538 6.34927 6.82852C6.61053 6.84381 6.88309 6.76606 7.20589 6.94067C6.73236 7.66459 6.28145 8.35538 5.77401 9.13028C5.31932 8.42803 4.93497 7.82518 4.54058 7.22871C4.20773 6.72401 3.79198 6.71126 3.45536 7.21852C2.7884 8.22283 2.13903 9.23734 1.49343 10.2557C1.25855 10.6253 1.4055 10.9821 1.82753 11.1249C1.90164 11.1504 1.99207 11.1287 2.04985 11.2409C2.01845 11.3008 1.98454 11.3772 1.94058 11.4461C1.48212 12.1572 1.01236 12.8608 0.565214 13.5783C0.271301 14.0499 0.488596 14.445 1.04 14.496C1.19575 14.5113 1.3829 14.4271 1.51227 14.6604C1.06386 15.3537 0.602895 16.0611 0.149465 16.7735C-0.170824 17.2757 0.0414461 17.7039 0.635552 17.7077C2.91777 17.7218 5.19874 17.7205 7.48096 17.7205C7.86029 17.7205 8.14289 17.5599 8.36145 17.2209C8.87642 16.423 9.4228 15.6481 9.95787 14.8643C11.6585 12.3752 13.3605 9.88479 15.0624 7.39695C15.7721 6.3595 16.4868 5.32714 17.1901 4.30371C17.3936 4.38145 17.4514 4.52675 17.533 4.64655C19.1521 6.99548 20.7711 9.3444 22.3851 11.6971C23.6299 13.5095 24.8708 15.3244 26.103 17.1444C26.358 17.5217 26.6469 17.7358 27.1292 17.7345C33.0125 17.7218 38.8957 17.7256 44.7778 17.7218C45.3882 17.7218 45.4234 17.6542 45.2161 16.9685H44.6044C39.0151 16.9685 33.4257 16.9545 27.8351 16.9851C27.148 16.9889 26.6707 16.8385 26.3781 16.1911C26.2927 16.0024 26.1344 15.847 26.0151 15.6723C23.6236 12.1878 21.2321 8.70205 18.8418 5.21626C18.612 4.88106 18.3972 4.5344 18.1096 4.09469C22.4592 4.79949 26.6757 5.48136 31.0041 6.18234C29.9955 7.66587 29.061 9.03852 28.1277 10.4112C28.3023 10.624 28.4631 10.7769 28.6741 10.833C28.8298 10.7693 28.8738 10.6419 28.9441 10.5399C29.807 9.28577 30.68 8.0393 31.5215 6.77116C31.7464 6.43087 31.9863 6.29577 32.3907 6.30087C34.1693 6.32253 35.9491 6.30979 37.7289 6.31234C37.8708 6.31234 38.0203 6.27665 38.1723 6.37479C38.1559 6.64116 37.9663 6.82342 37.8281 7.02606C36.1915 9.4145 34.5461 11.7966 32.9183 14.1914ZM3.17652 16.9583C2.49072 16.9481 1.80367 16.9558 1.0827 16.9558C1.08521 16.6537 1.23971 16.4766 1.35903 16.2892C1.69942 15.7539 2.05488 15.2288 2.38521 14.6871C2.72058 14.1404 2.51207 13.7593 1.87652 13.7198C1.75343 13.7121 1.63159 13.6981 1.41806 13.6777C1.78357 13.0953 2.11642 12.5664 2.44927 12.0387C2.57362 11.8424 2.70425 11.65 2.82608 11.4524C3.23178 10.7986 3.13004 10.5055 2.37893 10.2659C2.90145 9.46293 3.41517 8.67146 3.96531 7.82391C4.47777 8.42803 4.81314 9.08185 5.22009 9.68342C5.35323 9.87842 5.20125 10.0416 5.097 10.2009C4.81942 10.6253 4.54058 11.0484 4.26927 11.4779C3.98415 11.9291 4.19768 12.3701 4.72647 12.3918C5.22386 12.4121 5.72376 12.3956 6.3342 12.3956C6.00386 13.1157 5.58937 13.6229 5.24773 14.1761C4.74908 14.9854 4.21777 15.7756 3.7028 16.5747C3.57594 16.7735 3.46038 16.9634 3.17652 16.9583ZM12.7249 9.35969C11.0443 11.7851 9.38135 14.2232 7.72212 16.6639C7.59024 16.8576 7.46212 16.9698 7.22347 16.9685C6.32415 16.9596 5.42608 16.9647 4.35594 16.9647C4.90734 16.1044 5.37207 15.3805 5.83806 14.6578C6.26135 14.0002 6.68966 13.3451 7.11294 12.6862C7.25864 12.4606 7.43072 12.263 7.26869 11.938C7.10415 11.6079 6.85043 11.6398 6.58164 11.6398H5.15101C5.29922 11.1682 5.58434 10.8496 5.80541 10.5004C6.53014 9.35714 7.27246 8.22665 8.0085 7.09106C8.15797 6.86165 8.31623 6.66538 8.13661 6.3442C7.95826 6.0294 7.70579 6.06508 7.43826 6.05616C7.23101 6.04979 7.02 6.08675 6.71478 5.97842C7.75478 4.37381 8.77845 2.79469 9.86492 1.11616C10.969 2.74881 11.9952 4.34577 13.0452 5.97077C12.7023 6.0995 12.4298 6.03959 12.1647 6.05616C11.6196 6.09057 11.3923 6.49842 11.6774 6.96616C12.009 7.50655 12.3519 8.04185 12.7099 8.56567C12.8983 8.84097 12.9372 9.05254 12.7249 9.35969Z" fill="#333333"/>
<path d="M20.2159 11.6869C20.2096 11.0331 20.0438 10.8636 19.3932 10.8611C17.9312 10.8547 16.4691 10.8547 15.0071 10.8598C14.3728 10.8623 14.2321 11.0025 14.2296 11.65C14.2208 13.2189 14.2196 14.7866 14.2258 16.3555C14.2284 16.9851 14.3904 17.1508 15.0058 17.1533C16.4679 17.161 17.9299 17.1597 19.3919 17.1546C20.0401 17.152 20.2159 16.9711 20.2172 16.3287C20.2197 15.5653 20.2184 14.8031 20.2172 14.0397C20.2172 13.2546 20.2222 12.4708 20.2159 11.6869ZM15.0046 11.6767C15.5346 11.5557 16.0509 11.627 16.5621 11.6219C16.7932 11.6207 16.8183 11.794 16.8183 11.9737C16.8196 12.4797 16.8183 12.9857 16.8183 13.5592C16.1991 13.6561 15.6427 13.5987 15.0096 13.5962C14.9631 12.9551 14.9732 12.3344 15.0046 11.6767ZM16.8296 14.849C16.8133 15.0376 16.8271 15.2288 16.8271 15.4187C16.812 16.5237 16.9288 16.3886 15.8487 16.3886C14.8752 16.3899 14.987 16.5071 14.982 15.5156C14.977 14.3864 14.9807 14.3864 16.1036 14.3902C16.1865 14.3902 16.2707 14.3978 16.3536 14.3889C16.6902 14.3545 16.8635 14.4807 16.8296 14.849ZM18.6232 11.6168C19.5439 11.6168 19.4397 11.4996 19.4485 12.6161C19.4372 13.7478 19.569 13.5949 18.4914 13.6102C17.3785 13.6242 17.5832 13.6382 17.5782 12.7066C17.5732 11.4435 17.4363 11.6207 18.6232 11.6168ZM18.46 16.3886C17.5556 16.3899 17.5694 16.5199 17.5744 15.5092C17.5807 14.1952 17.4664 14.4131 18.6659 14.3902H18.7903C19.2257 14.3953 19.4451 14.6153 19.4485 15.0504C19.4497 15.1562 19.4485 15.2607 19.4485 15.3665C19.4384 16.5122 19.5829 16.3873 18.46 16.3886Z" fill="#333333"/>
<path d="M41.129 11.4422C41.1227 11.0038 40.9042 10.7833 40.4658 10.7757C39.5665 10.7591 38.6659 10.7591 37.7666 10.7757C37.3307 10.7833 37.1273 11.0038 37.1122 11.4524C37.0959 11.9393 37.1084 12.4287 37.1084 12.9168H37.1059C37.1059 13.3833 37.0946 13.8511 37.1084 14.3175C37.1222 14.7611 37.3358 15.0134 37.7478 15.0223C38.6672 15.0415 39.5878 15.0427 40.5085 15.0236C40.8966 15.016 41.1227 14.7713 41.129 14.3711C41.1441 13.3948 41.1428 12.4185 41.129 11.4422ZM38.3092 14.2474C38.0907 14.2462 37.8721 14.2423 37.8683 13.9365C37.8633 13.5974 37.8671 13.2584 37.8671 12.9181H37.8658C37.8658 12.5574 37.8671 12.1968 37.8646 11.8361C37.8621 11.52 38.0793 11.5238 38.2966 11.5251C38.5077 11.5264 38.735 11.506 38.735 11.8259C38.7363 12.5256 38.7363 13.2253 38.7375 13.9263C38.7375 14.2309 38.5315 14.2487 38.3092 14.2474ZM39.9797 14.2513C39.5841 14.2398 39.51 14.2003 39.5024 13.7861C39.4911 13.1539 39.5087 12.523 39.4974 11.8909C39.4911 11.5608 39.6758 11.5174 39.9358 11.5225C40.1845 11.5264 40.3942 11.5404 40.3817 11.8819C40.3678 12.2184 40.3779 12.5562 40.3779 12.8926H40.3792C40.3792 13.187 40.3704 13.4827 40.3817 13.7771C40.3942 14.0716 40.3302 14.2602 39.9797 14.2513Z" fill="#333333"/>
</g>
<path d="M54.8897 3.53329L50.6627 8.65822H54.9394V9.7255H49.075V8.86966L53.312 3.74473H49.204V2.67745H54.8897V3.53329Z" fill="#333333"/>
<path d="M57.698 9.7255H56.5272V2.67745H57.698V9.7255Z" fill="#333333"/>
<path d="M64.7804 3.74473H60.99V5.6477H64.3835V6.71497H60.99V8.65822H64.8995V9.7255H59.8191V2.67745H64.7804V3.74473Z" fill="#333333"/>
<path d="M67.7994 8.64815H70.806V9.7255H66.6285V2.67745H67.7994V8.64815Z" fill="#333333"/>
<path d="M75.3325 2.64725C77.4064 2.64725 79.0139 4.18775 79.0139 6.20147C79.0139 8.2152 77.4064 9.77584 75.3325 9.77584C73.2587 9.77584 71.6512 8.2152 71.6512 6.20147C71.6512 4.17768 73.2587 2.64725 75.3325 2.64725ZM75.3425 3.71452C73.9731 3.71452 72.8419 4.80193 72.8419 6.20147C72.8419 7.60101 73.983 8.70856 75.3425 8.70856C76.7019 8.70856 77.8132 7.60101 77.8132 6.20147C77.8132 4.80193 76.7019 3.71452 75.3425 3.71452Z" fill="#333333"/>
<path d="M86.5806 9.7255H85.4296L81.7284 4.67104V9.7255H80.5575V2.67745H81.7086L85.4296 7.74198V2.67745H86.5806V9.7255Z" fill="#333333"/>
<path d="M93.6753 3.74473H89.8848V5.6477H93.2784V6.71497H89.8848V8.65822H93.7944V9.7255H88.7139V2.67745H93.6753V3.74473Z" fill="#333333"/>
<path d="M56.7651 20.5588H55.5645L53.9173 15.0614L52.2503 20.5588H51.0397L48.7377 13.5108H49.9979L51.6847 19.2398L53.3617 13.5209L54.5127 13.5108L56.1995 19.2398L57.8765 13.5108H59.0871L56.7651 20.5588Z" fill="#333333"/>
<path d="M65.4687 14.3666L61.2416 19.4916H65.5183V20.5588H59.654V19.703L63.891 14.5781H59.783V13.5108H65.4687V14.3666Z" fill="#333333"/>
<path d="M71.8591 17.0952H72.8811V19.6929C72.1766 20.2366 71.1347 20.6092 70.1821 20.6092C68.1281 20.6092 66.5306 19.0485 66.5306 17.0348C66.5306 15.0211 68.148 13.4806 70.2516 13.4806C71.2438 13.4806 72.2361 13.8632 72.9208 14.4673L72.256 15.3433C71.7201 14.8399 70.9759 14.5378 70.2516 14.5378C68.8326 14.5378 67.7213 15.6353 67.7213 17.0348C67.7213 18.4444 68.8425 19.5419 70.2615 19.5419C70.7775 19.5419 71.3629 19.3607 71.8591 19.0586V17.0952Z" fill="#333333"/>
<path d="M79.4502 11.7589L78.2396 12.7456H77.2275L78.2793 11.2554L79.4502 11.7589ZM77.9419 13.4806C80.0157 13.4806 81.6232 15.0211 81.6232 17.0348C81.6232 19.0485 80.0157 20.6092 77.9419 20.6092C75.8681 20.6092 74.2606 19.0485 74.2606 17.0348C74.2606 15.011 75.8681 13.4806 77.9419 13.4806ZM77.9518 14.5479C76.5825 14.5479 75.4513 15.6353 75.4513 17.0348C75.4513 18.4344 76.5924 19.5419 77.9518 19.5419C79.3112 19.5419 80.4226 18.4344 80.4226 17.0348C80.4226 15.6353 79.3112 14.5479 77.9518 14.5479Z" fill="#333333"/>
<path d="M87.5726 20.5588L86.3025 18.4243C86.2033 18.4344 86.0941 18.4344 85.985 18.4344H84.3378V20.5588H83.1669V13.5108H85.985C87.7611 13.5108 88.7832 14.3868 88.7832 15.9172C88.7832 17.0449 88.2672 17.8403 87.3444 18.2028L88.9022 20.5588H87.5726ZM84.3378 17.3671H85.985C87.0566 17.3671 87.6718 16.9039 87.6718 15.9474C87.6718 15.0211 87.0566 14.5781 85.985 14.5781H84.3378V17.3671Z" fill="#333333"/>
<path d="M95.9042 14.3666L91.6772 19.4916H95.9539V20.5588H90.0895V19.703L94.3265 14.5781H90.2185V13.5108H95.9042V14.3666Z" fill="#333333"/>
<path d="M102.027 18.968H98.524L97.8592 20.5588H96.6387L99.7048 13.5108H100.905L103.942 20.5588H102.692L102.027 18.968ZM101.58 17.9108L100.27 14.7794L98.9606 17.9108H101.58Z" fill="#333333"/>
<defs>
<clipPath id="clip0_2538_1103">
<rect width="45.5678" height="17.5679" fill="white" transform="translate(0 0.166656)"/>
</clipPath>
</defs>
</svg>
