<svg width="288" height="48" fill="none" xmlns="http://www.w3.org/2000/svg"><path d="M167.519 17.2819v2.4211h-16.112v-1.8923l12.118-15.16649H151.6V.223145h15.561V2.11547L155.097 17.2819h12.422ZM173.963.223145h-2.754V19.703h2.754V.223145ZM193.738 17.2819v2.4211h-13.991V.223145h13.606V2.64421h-10.852v5.9831h9.667v2.36539h-9.667v6.2892h11.237ZM198.2.223145h2.754V17.2819h10.438v2.4211H198.2V.223145ZM222.905 19.9256c-1.956 0-3.691-.4453-5.261-1.3079-1.57-.8627-2.782-2.0315-3.663-3.5621-.909-1.5305-1.349-3.2281-1.349-5.09255 0-1.86451.44-3.56204 1.349-5.0926.881-1.53056 2.093-2.72718 3.663-3.58986 1.57-.862676 3.305-1.28010172 5.261-1.28010172 1.927 0 3.663.41742572 5.232 1.28010172 1.57.86268 2.782 2.0593 3.663 3.56204.882 1.53056 1.322 3.22809 1.322 5.12042 0 1.89235-.44 3.58985-1.322 5.09255-.881 1.5306-2.093 2.6994-3.663 3.5621-1.569.8626-3.305 1.3079-5.232 1.3079Zm0-2.4767c1.404 0 2.671-.334 3.828-.974 1.101-.6401 2.01-1.5584 2.644-2.6994.661-1.1409.991-2.3932.991-3.81245s-.33-2.69936-.991-3.84032c-.634-1.14096-1.515-2.03147-2.672-2.67152-1.129-.64006-2.396-.974-3.8-.974-1.405 0-2.7.33394-3.856.974-1.129.64005-2.038 1.53056-2.699 2.67152-.634 1.14096-.964 2.42107-.964 3.84032 0 1.41925.33 2.67155.964 3.81245.661 1.141 1.57 2.0593 2.699 2.6994 1.156.64 2.451.974 3.856.974ZM253.916.223145V19.703h-2.258L240.09 5.17659V19.703h-2.754V.223145h2.259L251.162 14.7496V.223145h2.754ZM273.691 17.2819v2.4211H259.7V.223145h13.606V2.64421h-10.852v5.9831h9.667v2.36539h-9.667v6.2892h11.237ZM166.378 28.2974l-6.445 19.4798h-2.892l-5.26-15.556-5.26 15.556h-2.947l-6.445-19.4798h2.837l5.205 15.8343 5.426-15.8343h2.534l5.315 15.9178 5.316-15.9178h2.616ZM184.688 45.3562v2.421h-16.111v-1.8923l12.118-15.1665h-11.926v-2.421h15.561v1.8923l-12.063 15.1665h12.421ZM201.925 37.9264h2.644v7.5972c-.964.807-2.066 1.4192-3.333 1.8367-1.267.4174-2.589.64-3.966.64-1.955 0-3.69-.4452-5.26-1.3079-1.57-.8627-2.782-2.0315-3.663-3.5621-.909-1.5027-1.35-3.2002-1.35-5.0925 0-1.8924.441-3.5899 1.35-5.1205.881-1.5305 2.12-2.6993 3.69-3.562 1.57-.8627 3.333-1.2801 5.288-1.2801 1.543 0 2.947.2505 4.214.7792 1.239.5009 2.314 1.2523 3.195 2.2263l-1.708 1.7253c-1.542-1.5027-3.415-2.2541-5.591-2.2541-1.459 0-2.781.3061-3.938.9462-1.184.64-2.093 1.5305-2.754 2.6715s-.992 2.4489-.992 3.8682c0 1.4192.331 2.6715.992 3.8124.661 1.141 1.57 2.0593 2.754 2.6994 1.157.64 2.451.974 3.911.974 1.735 0 3.222-.4174 4.517-1.2523v-6.3449ZM218.124 48.0001c-1.956 0-3.691-.4452-5.261-1.3079-1.57-.8627-2.781-2.0315-3.663-3.562-.909-1.5306-1.349-3.2281-1.349-5.0926s.44-3.562 1.349-5.0926c.882-1.5306 2.093-2.7272 3.663-3.5899 1.57-.8626 3.305-1.2801 5.261-1.2801 1.928 0 3.663.4175 5.233 1.2801 1.569.8627 2.781 2.0593 3.663 3.5621.881 1.5305 1.322 3.2281 1.322 5.1204s-.441 3.5898-1.322 5.0926c-.882 1.5305-2.094 2.6993-3.663 3.562-1.57.8627-3.305 1.3079-5.233 1.3079Zm0-2.4767c1.404 0 2.671-.3339 3.828-.974 1.102-.64 2.01-1.5584 2.644-2.6993.661-1.141.991-2.3933.991-3.8125 0-1.4193-.33-2.6994-.991-3.8403-.634-1.141-1.515-2.0315-2.672-2.6716-1.129-.64-2.396-.9739-3.8-.9739-1.405 0-2.699.3339-3.856.9739-1.129.6401-2.038 1.5306-2.699 2.6716-.634 1.1409-.964 2.421-.964 3.8403 0 1.4192.33 2.6715.964 3.8125.661 1.1409 1.57 2.0593 2.699 2.6993 1.157.6401 2.451.974 3.856.974Zm1.68-22.4296h3.36l-4.627 3.6176h-2.479l3.746-3.6176ZM244.628 47.7772l-4.159-5.9831c-.523.0278-.909.0557-1.212.0557h-4.764v5.9274h-2.755V28.2974h7.519c2.507 0 4.462.6122 5.894 1.8088 1.432 1.1966 2.148 2.8663 2.148 4.9813 0 1.5027-.358 2.7828-1.101 3.8403-.744 1.0575-1.791 1.8367-3.14 2.3098l4.572 6.5396h-3.002Zm-5.453-8.2928c1.735 0 3.084-.3896 3.993-1.141.909-.7514 1.377-1.8367 1.377-3.2559 0-1.4193-.468-2.5046-1.377-3.2559-.909-.7514-2.258-1.1132-3.993-1.1132h-4.682v8.766h4.682ZM266.574 45.3562v2.421h-16.112v-1.8923l12.118-15.1665h-11.925v-2.421h15.561v1.8923l-12.063 15.1665h12.421ZM282.956 42.9073h-10.245l-2.121 4.8699h-2.836l8.73-19.4798h2.727l8.758 19.4798h-2.892l-2.121-4.8699Zm-.964-2.2263-4.158-9.5451-4.159 9.5451h8.317Z" fill="#000"/><path fill-rule="evenodd" clip-rule="evenodd" d="M47.3998 10.9319 22.3056 47.3297l-.0004.0012-.8474.446-20.598376-.0348L0 46.1302l4.63268-7.1352H2.02661l-.86108-1.6119 4.9168-7.5728H4.63019l-.85984-1.6143 6.51905-9.9772h1.7193l4.0366 6.1776 4.0906-6.3004h-3.6426l-.8598-1.6144L26.4028 0h1.7193l10.7693 16.4816-.8594 1.6144h-3.643l2.672 4.1156 9.4205-13.70633 1.0091-.43419 39.5675 6.39972h20.1429l.845.4455 17.142 24.8171-1.69 1.1915-16.294-23.5904-16.2959 23.593-.8486.4471h-8.9858v-2.0909h8.4462l15.7011-22.7308H87.519l-8.7229 12.6288-1.6968-1.1965 8.0874-11.7089c-6.2939-1.018-29.018-4.6936-35.5566-5.751l24.2322 35.1699h50.4807v2.0817H73.3244l-.8454-.446-25.0792-36.399ZM14.8147 26.2916l-3.6658-5.6101-4.60451 7.0467H7.9899l.8615 1.6119-4.9168 7.5732h2.60565l.8615 1.6114L2.767 45.6633l6.91935.0118C11.1912 43.357 17.741 33.2688 17.741 33.2688h-5.5485l-.8615-1.6115 3.4837-5.3657Zm-2.667 19.3876 8.7738.0151 14.8728-21.6391-4.1744-6.429.8615-1.6119h3.636L27.2626 2.46265 18.4075 16.0143h3.6364l.8611 1.6119-5.9957 9.2345-2.8089 4.3264h5.5486l.861 1.6119-8.3623 12.8802ZM112.838 29.8979v9.4663l-1.035 1.0453h-8.971l-1.035-1.0453v-9.4663l1.035-1.0452h8.971l1.035 1.0452Zm-6.555 1.0457h-2.417v7.375h2.417v-7.375Zm2.069 7.375h2.417v-7.375h-2.417v7.375Zm-52.808-8.2367v15.1556l-1.0349 1.0453h-14.363l-1.0349-1.0453V30.0819l1.0349-1.0452h14.363l1.0349 1.0452Zm-9.2508 1.0457h-5.1126v5.4869h5.1126v-5.4869Zm7.1815 5.4869v-5.4869h-5.1126v5.4869h5.1126Zm-5.1126 7.5774h5.1126V38.705h-5.1126v5.4869Zm-7.1815-5.4869v5.4869h5.1126V38.705h-5.1126Z" fill="#000"/></svg>