<svg width="378" height="75" viewBox="0 0 378 75" fill="none" xmlns="http://www.w3.org/2000/svg">
<g clip-path="url(#clip0_4001_1824)">
<path d="M119.645 48.7174C118.906 49.7366 118.116 50.1592 116.828 50.1243C114.172 50.0503 111.505 50.1113 108.839 50.1025C107.958 50.0982 107.401 50.3291 107.378 51.3178C107.356 52.3589 107.821 52.7335 108.876 52.7248C111.766 52.6987 114.66 52.6595 117.55 52.7597C119.348 52.8206 120.472 52.1455 121.49 50.7342C127.744 42.0659 134.085 33.4542 140.412 24.8382C140.869 24.2197 141.134 23.379 142.27 23.1002C149.347 32.7703 156.45 42.484 163.531 52.1673C166.06 50.8256 166.092 50.8038 164.713 48.9134C157.998 39.6919 151.205 30.5227 144.58 21.2446C143.247 19.3759 141.759 18.7225 139.481 18.753C132.099 18.8488 124.717 18.7704 117.34 18.8009C114.742 18.8096 112.204 18.4394 109.657 18.0299C104.438 17.2023 99.2159 16.4095 93.9887 15.6211C88.6885 14.824 83.3791 14.0617 78.0743 13.2689C73.3722 12.5676 68.6563 11.9011 63.9724 11.104C62.3517 10.8296 61.4159 11.3915 60.5576 12.5981C57.5263 16.8495 54.4402 21.0703 51.345 25.2825C50.5872 26.3149 49.9252 27.4431 48.8022 28.336C47.6061 26.8332 46.5424 25.4698 45.7389 23.8059C46.9122 23.4051 47.9028 23.6011 48.8615 23.5445C50.8702 23.4356 51.7102 22.0417 50.6328 20.4779C46.3735 14.2925 42.0913 8.12019 37.7954 1.95656C36.7043 0.388431 35.0883 0.397143 33.9972 1.97399C29.7561 8.08534 25.5287 14.2054 21.3196 20.3385C20.1509 22.0417 20.9452 23.44 23.0772 23.5532C24.0267 23.6055 25.0174 23.3398 26.1907 23.9365C24.4696 26.4107 22.8307 28.7716 20.9863 31.42C19.3337 29.0199 17.9367 26.9595 16.5033 24.921C15.2935 23.196 13.7824 23.1525 12.5589 24.8861C10.1348 28.3186 7.77456 31.7859 5.42804 35.2663C4.57435 36.5295 5.10848 37.7492 6.64239 38.237C6.91174 38.3241 7.24043 38.2501 7.45043 38.6334C7.3363 38.8381 7.21304 39.0995 7.05326 39.3347C5.38695 41.7653 3.67956 44.1698 2.05435 46.6222C0.986085 48.2339 1.77587 49.5842 3.78 49.7584C4.34609 49.8107 5.0263 49.5232 5.49652 50.3203C3.86674 52.69 2.1913 55.1075 0.543259 57.5425C-0.620871 59.2587 0.15065 60.7223 2.31 60.7353C10.605 60.7833 18.8954 60.7789 27.1904 60.7789C28.5691 60.7789 29.5963 60.2301 30.3907 59.0714C32.2624 56.3446 34.2483 53.6962 36.193 51.0173C42.3743 42.5102 48.5602 33.9987 54.7461 25.496C57.3254 21.9502 59.923 18.4219 62.4796 14.9241C63.2191 15.1898 63.4291 15.6864 63.7259 16.0959C69.6104 24.1238 75.495 32.1518 81.3613 40.1928C85.8854 46.3869 90.3959 52.5898 94.8744 58.81C95.8011 60.0994 96.8511 60.8312 98.6041 60.8268C119.988 60.7833 141.371 60.7963 162.75 60.7833C164.969 60.7833 165.097 60.5524 164.343 58.2089H162.12C141.805 58.2089 121.49 58.161 101.17 58.2655C98.6726 58.2786 96.9378 57.7646 95.8741 55.5518C95.5637 54.9071 94.9885 54.3757 94.5548 53.7789C85.8626 41.8699 77.1704 29.9564 68.4828 18.043C67.6474 16.8974 66.8667 15.7126 65.8213 14.2098C81.6307 16.6186 96.9561 18.949 112.688 21.3448C109.022 26.4151 105.625 31.1064 102.233 35.7977C102.868 36.5251 103.452 37.0479 104.219 37.2395C104.785 37.0217 104.945 36.5861 105.201 36.2377C108.337 31.9514 111.51 27.6913 114.569 23.3572C115.386 22.1942 116.258 21.7324 117.728 21.7499C124.192 21.8239 130.661 21.7804 137.13 21.7891C137.646 21.7891 138.189 21.6671 138.742 22.0025C138.682 22.9129 137.993 23.5358 137.491 24.2284C131.542 32.3914 125.562 40.5326 119.645 48.7174ZM11.5454 58.1741C9.05282 58.1392 6.55565 58.1654 3.93522 58.1654C3.94435 57.133 4.50587 56.5275 4.93956 55.8872C6.17674 54.0577 7.46869 52.2631 8.66935 50.4118C9.88826 48.5431 9.13043 47.2407 6.82043 47.1057C6.37304 47.0795 5.93022 47.0316 5.15413 46.9619C6.48261 44.9713 7.69239 43.1636 8.90217 41.3602C9.35413 40.6894 9.82891 40.0317 10.2717 39.3565C11.7463 37.1219 11.3765 36.12 8.64652 35.3011C10.5457 32.5569 12.4128 29.8519 14.4124 26.9552C16.275 29.0199 17.4939 31.2545 18.973 33.3105C19.457 33.9769 18.9046 34.5345 18.5257 35.079C17.5167 36.5295 16.5033 37.9757 15.5172 39.4436C14.4809 40.9856 15.257 42.4928 17.1789 42.5668C18.9867 42.6365 20.8037 42.5799 23.0224 42.5799C21.8217 45.041 20.3152 46.7746 19.0735 48.6651C17.2611 51.4311 15.33 54.1318 13.4583 56.8629C12.9972 57.5425 12.5772 58.1915 11.5454 58.1741ZM46.2502 32.2041C40.142 40.4934 34.0976 48.8263 28.067 57.1678C27.5876 57.8299 27.122 58.2133 26.2546 58.2089C22.9859 58.1784 19.7217 58.1958 15.8322 58.1958C17.8363 55.2556 19.5254 52.7814 21.2191 50.3116C22.7576 48.064 24.3143 45.825 25.8528 43.573C26.3824 42.802 27.0078 42.1269 26.4189 41.0161C25.8209 39.8879 24.8987 39.9968 23.9217 39.9968H18.722C19.2607 38.3851 20.297 37.2961 21.1004 36.1026C23.7346 32.1954 26.4326 28.3317 29.1078 24.4505C29.6511 23.6665 30.2263 22.9957 29.5735 21.898C28.9252 20.8221 28.0076 20.944 27.0352 20.9135C26.282 20.8917 25.515 21.0181 24.4057 20.6478C28.1857 15.1637 31.9063 9.76673 35.8552 4.02998C39.868 9.60991 43.5978 15.0679 47.4143 20.6217C46.168 21.0616 45.1774 20.8569 44.2141 20.9135C42.2328 21.0311 41.4065 22.425 42.4428 24.0237C43.648 25.8706 44.8943 27.7 46.1954 29.4903C46.8802 30.4312 47.0217 31.1543 46.2502 32.2041Z" fill="white"/>
<path d="M73.4772 40.158C73.4543 37.9234 72.8517 37.3441 70.4869 37.3353C65.173 37.3136 59.8591 37.3136 54.5452 37.331C52.2398 37.3397 51.7285 37.8189 51.7193 40.0317C51.6874 45.3938 51.6828 50.7516 51.7056 56.1137C51.7148 58.2655 52.3037 58.8318 54.5406 58.8405C59.8546 58.8667 65.1685 58.8623 70.4824 58.8449C72.838 58.8362 73.4772 58.2176 73.4817 56.0222C73.4909 53.413 73.4863 50.8082 73.4817 48.199C73.4817 45.5158 73.5 42.8369 73.4772 40.158ZM54.5361 40.1231C56.4626 39.7093 58.3389 39.9533 60.1969 39.9358C61.0369 39.9315 61.1282 40.5239 61.1282 41.1381C61.1328 42.8674 61.1282 44.5967 61.1282 46.5568C58.8776 46.8879 56.8552 46.6919 54.5543 46.6831C54.3854 44.4921 54.4219 42.3708 54.5361 40.1231ZM61.1693 50.965C61.11 51.6097 61.1602 52.2631 61.1602 52.9121C61.1054 56.6887 61.53 56.227 57.6039 56.227C54.0659 56.2313 54.4722 56.6321 54.4539 53.2432C54.4356 49.3838 54.4493 49.3838 58.5306 49.3969C58.8319 49.3969 59.1378 49.423 59.4391 49.3925C60.6626 49.2749 61.2926 49.7062 61.1693 50.965ZM67.6885 39.9184C71.0348 39.9184 70.6559 39.5177 70.6878 43.3334C70.6467 47.2015 71.1261 46.6788 67.2091 46.7311C63.1643 46.779 63.9085 46.8269 63.8902 43.6427C63.8719 39.326 63.3743 39.9315 67.6885 39.9184ZM67.095 56.227C63.808 56.2313 63.8582 56.6756 63.8765 53.2214C63.8993 48.7304 63.4839 49.4753 67.8437 49.3969H68.2956C69.8783 49.4143 70.6756 50.1664 70.6878 51.6533C70.6924 52.0148 70.6878 52.372 70.6878 52.7335C70.6513 56.6495 71.1763 56.2226 67.095 56.227Z" fill="white"/>
<path d="M149.488 39.3217C149.465 37.8232 148.671 37.0696 147.078 37.0435C143.809 36.9869 140.536 36.9869 137.267 37.0435C135.683 37.0696 134.943 37.8232 134.888 39.3565C134.829 41.0205 134.875 42.6931 134.875 44.3615H134.866C134.866 45.9557 134.825 47.5543 134.875 49.1486C134.925 50.6645 135.701 51.5269 137.198 51.5574C140.54 51.6228 143.887 51.6271 147.233 51.5618C148.643 51.5357 149.465 50.6993 149.488 49.3316C149.543 45.9949 149.538 42.6583 149.488 39.3217ZM139.239 48.909C138.445 48.9047 137.65 48.8916 137.637 47.8462C137.618 46.6875 137.632 45.5288 137.632 44.3658H137.628C137.628 43.1331 137.632 41.9004 137.623 40.6676C137.614 39.5874 138.404 39.6004 139.193 39.6048C139.96 39.6091 140.787 39.5395 140.787 40.6328C140.791 43.0242 140.791 45.4156 140.796 47.8113C140.796 48.8524 140.047 48.9134 139.239 48.909ZM145.311 48.9221C143.873 48.8829 143.603 48.7479 143.576 47.3322C143.535 45.1717 143.599 43.0155 143.558 40.8549C143.535 39.7268 144.206 39.5787 145.151 39.5961C146.055 39.6091 146.817 39.6571 146.772 40.8244C146.722 41.9744 146.758 43.1287 146.758 44.2787H146.763C146.763 45.2849 146.731 46.2955 146.772 47.3017C146.817 48.3079 146.585 48.9526 145.311 48.9221Z" fill="white"/>
</g>
<path d="M199.503 12.291L184.139 29.8066H199.684V33.4542H178.369V30.5292L193.769 13.0136H178.838V9.36599H199.503V12.291Z" fill="white"/>
<path d="M209.71 33.4542H205.455V9.36599H209.71V33.4542Z" fill="white"/>
<path d="M235.452 13.0136H221.675V19.5175H234.009V23.1651H221.675V29.8066H235.885V33.4542H217.419V9.36599H235.452V13.0136Z" fill="white"/>
<path d="M246.425 29.7722H257.353V33.4542H242.169V9.36599H246.425V29.7722Z" fill="white"/>
<path d="M273.805 9.26276C281.343 9.26276 287.185 14.5278 287.185 21.4101C287.185 28.2925 281.343 33.6263 273.805 33.6263C266.267 33.6263 260.425 28.2925 260.425 21.4101C260.425 14.4933 266.267 9.26276 273.805 9.26276ZM273.841 12.9104C268.864 12.9104 264.753 16.6269 264.753 21.4101C264.753 26.1933 268.9 29.9786 273.841 29.9786C278.782 29.9786 282.821 26.1933 282.821 21.4101C282.821 16.6269 278.782 12.9104 273.841 12.9104Z" fill="white"/>
<path d="M314.687 33.4542H310.504L297.051 16.1795V33.4542H292.796V9.36599H296.979L310.504 26.6751V9.36599H314.687V33.4542Z" fill="white"/>
<path d="M340.474 13.0136H326.697V19.5175H339.031V23.1651H326.697V29.8066H340.906V33.4542H322.441V9.36599H340.474V13.0136Z" fill="white"/>
<path d="M206.32 70.4795H201.956L195.969 51.6907L189.91 70.4795H185.51L177.143 46.3913H181.723L187.854 65.9716L193.949 46.4257L198.133 46.3913L204.264 65.9716L210.359 46.3913H214.759L206.32 70.4795Z" fill="white"/>
<path d="M237.954 49.3163L222.59 66.8319H238.134V70.4795H216.819V67.5545L232.219 50.039H217.288V46.3913H237.954V49.3163Z" fill="white"/>
<path d="M261.18 58.6419H264.895V67.5201C262.334 69.3784 258.547 70.6516 255.085 70.6516C247.62 70.6516 241.813 65.3178 241.813 58.4354C241.813 51.5531 247.692 46.2881 255.338 46.2881C258.944 46.2881 262.551 47.5957 265.039 49.6604L262.623 52.6542C260.675 50.9337 257.97 49.9013 255.338 49.9013C250.18 49.9013 246.141 53.6522 246.141 58.4354C246.141 63.2531 250.216 67.004 255.374 67.004C257.249 67.004 259.377 66.3845 261.18 65.3522V58.6419Z" fill="white"/>
<path d="M288.771 40.4037L284.371 43.776H280.692L284.515 38.6831L288.771 40.4037ZM283.289 46.2881C290.827 46.2881 296.669 51.5531 296.669 58.4354C296.669 65.3178 290.827 70.6516 283.289 70.6516C275.751 70.6516 269.909 65.3178 269.909 58.4354C269.909 51.5187 275.751 46.2881 283.289 46.2881ZM283.325 49.9357C278.348 49.9357 274.237 53.6522 274.237 58.4354C274.237 63.2187 278.384 67.004 283.325 67.004C288.266 67.004 292.305 63.2187 292.305 58.4354C292.305 53.6522 288.266 49.9357 283.325 49.9357Z" fill="white"/>
<path d="M318.293 70.4795L313.676 63.1842C313.316 63.2187 312.919 63.2187 312.522 63.2187H306.535V70.4795H302.28V46.3913H312.522C318.978 46.3913 322.693 49.3851 322.693 54.6157C322.693 58.4698 320.817 61.1884 317.463 62.4272L323.125 70.4795H318.293ZM306.535 59.571H312.522C316.417 59.571 318.653 57.9881 318.653 54.719C318.653 51.5531 316.417 50.039 312.522 50.039H306.535V59.571Z" fill="white"/>
<path d="M348.575 49.3163L333.211 66.8319H348.755V70.4795H327.441V67.5545L342.841 50.039H327.91V46.3913H348.575V49.3163Z" fill="white"/>
<path d="M370.828 65.0425H358.097L355.681 70.4795H351.245L362.389 46.3913H366.753L377.789 70.4795H373.244L370.828 65.0425ZM369.205 61.4292L364.444 50.7272L359.684 61.4292H369.205Z" fill="white"/>
<defs>
<clipPath id="clip0_4001_1824">
<rect width="165.622" height="60.042" fill="white" transform="translate(0 0.784821)"/>
</clipPath>
</defs>
</svg>
