<svg width="378" height="75" viewBox="0 0 378 75" fill="none" xmlns="http://www.w3.org/2000/svg">
<g clip-path="url(#clip0_2500_1501)">
<path d="M119.645 47.9326C118.906 48.9519 118.116 49.3744 116.828 49.3395C114.171 49.2655 111.505 49.3265 108.839 49.3178C107.958 49.3134 107.401 49.5443 107.378 50.5331C107.356 51.5741 107.821 51.9487 108.876 51.94C111.766 51.9139 114.66 51.8747 117.55 51.9749C119.348 52.0358 120.471 51.3607 121.49 49.9494C127.744 41.2811 134.085 32.6694 140.412 24.0534C140.869 23.4349 141.134 22.5942 142.27 22.3154C149.346 31.9855 156.45 41.6992 163.531 51.3825C166.06 50.0408 166.092 50.0191 164.713 48.1286C157.998 38.9071 151.205 29.7379 144.58 20.4598C143.247 18.5911 141.759 17.9377 139.481 17.9682C132.099 18.064 124.717 17.9856 117.34 18.0161C114.742 18.0248 112.204 17.6546 109.656 17.2451C104.438 16.4175 99.2158 15.6247 93.9887 14.8363C88.6885 14.0392 83.3791 13.2769 78.0743 12.4841C73.3721 11.7828 68.6563 11.1163 63.9724 10.3192C62.3517 10.0448 61.4158 10.6067 60.5576 11.8133C57.5263 16.0647 54.4402 20.2856 51.345 24.4977C50.5871 25.5301 49.9252 26.6583 48.8021 27.5512C47.6061 26.0484 46.5424 24.685 45.7389 23.0211C46.9121 22.6203 47.9028 22.8163 48.8615 22.7597C50.8702 22.6508 51.7102 21.2569 50.6328 19.6931C46.3734 13.5077 42.0913 7.3354 37.7954 1.17177C36.7043 -0.396359 35.0882 -0.387647 33.9971 1.1892C29.7561 7.30055 25.5287 13.4206 21.3195 19.5538C20.1508 21.2569 20.9452 22.6552 23.0771 22.7684C24.0267 22.8207 25.0174 22.555 26.1906 23.1517C24.4695 25.6259 22.8306 27.9868 20.9863 30.6352C19.3337 28.2351 17.9367 26.1748 16.5032 24.1362C15.2934 22.4112 13.7824 22.3677 12.5589 24.1013C10.1348 27.5338 7.77453 31.0011 5.42801 34.4815C4.57432 35.7447 5.10845 36.9644 6.64236 37.4522C6.91171 37.5393 7.2404 37.4653 7.4504 37.8486C7.33627 38.0533 7.21301 38.3147 7.05323 38.5499C5.38692 40.9805 3.67953 43.385 2.05432 45.8374C0.986055 47.4491 1.77584 48.7994 3.77997 48.9736C4.34605 49.0259 5.02627 48.7384 5.49649 49.5355C3.86671 51.9052 2.19127 54.3227 0.543228 56.7577C-0.620902 58.4739 0.15062 59.9375 2.30997 59.9506C10.605 59.9985 18.8954 59.9941 27.1904 59.9941C28.5691 59.9941 29.5963 59.4453 30.3906 58.2866C32.2624 55.5598 34.2482 52.9114 36.193 50.2325C42.3743 41.7254 48.5602 33.2139 54.7461 24.7112C57.3254 21.1654 59.923 17.6371 62.4795 14.1393C63.2191 14.4051 63.4291 14.9016 63.7258 15.3111C69.6104 23.3391 75.495 31.367 81.3613 39.408C85.8854 45.6022 90.3958 51.805 94.8743 58.0252C95.8011 59.3146 96.8511 60.0464 98.6041 60.042C119.988 59.9985 141.371 60.0115 162.75 59.9985C164.969 59.9985 165.096 59.7676 164.343 57.4241H162.12C141.805 57.4241 121.49 57.3762 101.17 57.4808C98.6726 57.4938 96.9378 56.9798 95.8741 54.767C95.5637 54.1223 94.9884 53.5909 94.5547 52.9942C85.8626 41.0851 77.1704 29.1716 68.4828 17.2582C67.6474 16.1126 66.8667 14.9278 65.8213 13.425C81.6306 15.8338 96.9561 18.1642 112.688 20.56C109.022 25.6303 105.625 30.3216 102.233 35.0129C102.868 35.7403 103.452 36.2631 104.219 36.4547C104.785 36.2369 104.945 35.8013 105.201 35.4529C108.337 31.1666 111.51 26.9065 114.569 22.5724C115.386 21.4094 116.258 20.9476 117.728 20.9651C124.192 21.0391 130.661 20.9956 137.13 21.0043C137.646 21.0043 138.189 20.8823 138.742 21.2177C138.682 22.1281 137.993 22.751 137.491 23.4436C131.542 31.6066 125.562 39.7478 119.645 47.9326ZM11.5454 57.3893C9.05279 57.3544 6.55562 57.3806 3.93519 57.3806C3.94432 56.3482 4.50584 55.7427 4.93953 55.1024C6.17671 53.2729 7.46866 51.4783 8.66932 49.627C9.88823 47.7583 9.1304 46.4559 6.8204 46.3209C6.37301 46.2947 5.93019 46.2468 5.1541 46.1771C6.48258 44.1865 7.69236 42.3788 8.90214 40.5754C9.3541 39.9046 9.82888 39.2469 10.2717 38.5717C11.7463 36.3371 11.3765 35.3353 8.64649 34.5163C10.5456 31.7721 12.4128 29.0671 14.4124 26.1704C16.275 28.2351 17.4939 30.4697 18.973 32.5257C19.4569 33.1921 18.9045 33.7497 18.5256 34.2942C17.5167 35.7447 16.5032 37.1909 15.5171 38.6588C14.4808 40.2008 15.2569 41.708 17.1789 41.782C18.9867 41.8517 20.8037 41.7951 23.0224 41.7951C21.8217 44.2562 20.3152 45.9898 19.0734 47.8803C17.2611 50.6463 15.33 53.347 13.4582 56.0781C12.9971 56.7577 12.5771 57.4067 11.5454 57.3893ZM46.2502 31.4193C40.1419 39.7086 34.0976 48.0415 28.0669 56.3831C27.5876 57.0452 27.1219 57.4285 26.2545 57.4241C22.9858 57.3936 19.7217 57.4111 15.8321 57.4111C17.8363 54.4708 19.5254 51.9966 21.2191 49.5268C22.7576 47.2792 24.3143 45.0402 25.8528 42.7882C26.3824 42.0172 27.0078 41.3421 26.4189 40.2313C25.8208 39.1031 24.8987 39.212 23.9217 39.212H18.7219C19.2606 37.6003 20.2969 36.5113 21.1004 35.3178C23.7345 31.4106 26.4326 27.5469 29.1078 23.6657C29.6511 22.8817 30.2263 22.2109 29.5734 21.1132C28.9252 20.0373 28.0076 20.1592 27.0352 20.1287C26.2819 20.107 25.515 20.2333 24.4056 19.863C28.1856 14.3789 31.9063 8.98194 35.8552 3.24519C39.868 8.82512 43.5978 14.2831 47.4143 19.8369C46.168 20.2768 45.1774 20.0721 44.2141 20.1287C42.2328 20.2463 41.4065 21.6402 42.4428 23.2389C43.648 25.0858 44.8943 26.9153 46.1954 28.7055C46.8802 29.6464 47.0217 30.3695 46.2502 31.4193Z" fill="#333333"/>
<path d="M73.4772 39.3731C73.4544 37.1385 72.8518 36.5592 70.487 36.5505C65.1731 36.5287 59.8592 36.5287 54.5452 36.5461C52.2398 36.5548 51.7285 37.034 51.7194 39.2468C51.6874 44.6089 51.6828 49.9667 51.7057 55.3289C51.7148 57.4807 52.3037 58.047 54.5407 58.0557C59.8546 58.0818 65.1685 58.0774 70.4824 58.06C72.8381 58.0513 73.4772 57.4328 73.4818 55.2374C73.4909 52.6282 73.4863 50.0234 73.4818 47.4142C73.4818 44.7309 73.5 42.052 73.4772 39.3731ZM54.5361 39.3383C56.4626 38.9245 58.3389 39.1684 60.197 39.151C61.037 39.1466 61.1283 39.739 61.1283 40.3532C61.1328 42.0825 61.1283 43.8118 61.1283 45.772C58.8776 46.103 56.8552 45.907 54.5544 45.8983C54.3855 43.7073 54.422 41.5859 54.5361 39.3383ZM61.1694 50.1802C61.11 50.8248 61.1602 51.4782 61.1602 52.1273C61.1055 55.9038 61.53 55.4421 57.6039 55.4421C54.0659 55.4465 54.4722 55.8472 54.4539 52.4583C54.4357 48.599 54.4494 48.599 58.5307 48.612C58.832 48.612 59.1378 48.6382 59.4391 48.6077C60.6626 48.4901 61.2926 48.9213 61.1694 50.1802ZM67.6885 39.1336C71.0348 39.1336 70.6559 38.7328 70.6878 42.5486C70.6468 46.4167 71.1261 45.8939 67.2092 45.9462C63.1644 45.9941 63.9085 46.042 63.8902 42.8579C63.872 38.5411 63.3744 39.1466 67.6885 39.1336ZM67.095 55.4421C63.8081 55.4465 63.8583 55.8908 63.8765 52.4365C63.8994 47.9456 63.4839 48.6904 67.8437 48.612H68.2957C69.8783 48.6295 70.6757 49.3816 70.6878 50.8684C70.6924 51.2299 70.6878 51.5871 70.6878 51.9487C70.6513 55.8646 71.1763 55.4378 67.095 55.4421Z" fill="#333333"/>
<path d="M149.488 38.5368C149.465 37.0384 148.671 36.2848 147.078 36.2587C143.809 36.202 140.536 36.202 137.267 36.2587C135.683 36.2848 134.943 37.0384 134.889 38.5717C134.829 40.2356 134.875 41.9083 134.875 43.5766H134.866C134.866 45.1709 134.825 46.7695 134.875 48.3638C134.925 49.8796 135.701 50.7421 137.199 50.7726C140.54 50.8379 143.887 50.8423 147.233 50.7769C148.644 50.7508 149.465 49.9145 149.488 48.5467C149.543 45.2101 149.538 41.8734 149.488 38.5368ZM139.239 48.1242C138.445 48.1198 137.65 48.1068 137.637 47.0613C137.619 45.9027 137.632 44.744 137.632 43.581H137.628C137.628 42.3482 137.632 41.1155 137.623 39.8828C137.614 38.8025 138.404 38.8156 139.194 38.8199C139.96 38.8243 140.787 38.7546 140.787 39.8479C140.791 42.2393 140.791 44.6307 140.796 47.0265C140.796 48.0676 140.047 48.1285 139.239 48.1242ZM145.311 48.1373C143.873 48.098 143.604 47.963 143.576 46.5473C143.535 44.3868 143.599 42.2306 143.558 40.0701C143.535 38.9419 144.206 38.7938 145.151 38.8112C146.055 38.8243 146.817 38.8722 146.772 40.0396C146.722 41.1896 146.758 42.3439 146.758 43.4938H146.763C146.763 44.5001 146.731 45.5106 146.772 46.5168C146.817 47.5231 146.585 48.1677 145.311 48.1373Z" fill="#333333"/>
</g>
<path d="M199.503 11.5061L184.139 29.0217H199.684V32.6694H178.369V29.7444L193.769 12.2288H178.838V8.58114H199.503V11.5061Z" fill="#333333"/>
<path d="M209.71 32.6694H205.455V8.58114H209.71V32.6694Z" fill="#333333"/>
<path d="M235.452 12.2288H221.675V18.7326H234.01V22.3803H221.675V29.0217H235.885V32.6694H217.42V8.58114H235.452V12.2288Z" fill="#333333"/>
<path d="M246.425 28.9873H257.353V32.6694H242.169V8.58114H246.425V28.9873Z" fill="#333333"/>
<path d="M273.805 8.47791C281.343 8.47791 287.185 13.7429 287.185 20.6253C287.185 27.5076 281.343 32.8414 273.805 32.8414C266.267 32.8414 260.425 27.5076 260.425 20.6253C260.425 13.7085 266.267 8.47791 273.805 8.47791ZM273.841 12.1256C268.864 12.1256 264.753 15.842 264.753 20.6253C264.753 25.4085 268.9 29.1938 273.841 29.1938C278.782 29.1938 282.821 25.4085 282.821 20.6253C282.821 15.842 278.782 12.1256 273.841 12.1256Z" fill="#333333"/>
<path d="M314.687 32.6694H310.504L297.052 15.3947V32.6694H292.796V8.58114H296.979L310.504 25.8903V8.58114H314.687V32.6694Z" fill="#333333"/>
<path d="M340.474 12.2288H326.697V18.7326H339.031V22.3803H326.697V29.0217H340.907V32.6694H322.441V8.58114H340.474V12.2288Z" fill="#333333"/>
<path d="M206.32 69.6947H201.956L195.969 50.9059L189.91 69.6947H185.51L177.143 45.6065H181.723L187.854 65.1867L193.949 45.6409L198.133 45.6065L204.264 65.1867L210.359 45.6065H214.759L206.32 69.6947Z" fill="#333333"/>
<path d="M237.954 48.5315L222.59 66.047H238.134V69.6947H216.819V66.7697L232.219 49.2541H217.288V45.6065H237.954V48.5315Z" fill="#333333"/>
<path d="M261.18 57.857H264.895V66.7353C262.334 68.5935 258.547 69.8668 255.085 69.8668C247.62 69.8668 241.813 64.5329 241.813 57.6506C241.813 50.7682 247.692 45.5032 255.338 45.5032C258.944 45.5032 262.551 46.8109 265.039 48.8756L262.623 51.8694C260.675 50.1488 257.97 49.1165 255.338 49.1165C250.18 49.1165 246.141 52.8673 246.141 57.6506C246.141 62.4682 250.216 66.2191 255.374 66.2191C257.249 66.2191 259.377 65.5997 261.18 64.5673V57.857Z" fill="#333333"/>
<path d="M288.771 39.6188L284.371 42.9912H280.692L284.515 37.8982L288.771 39.6188ZM283.289 45.5032C290.827 45.5032 296.669 50.7682 296.669 57.6506C296.669 64.5329 290.827 69.8668 283.289 69.8668C275.751 69.8668 269.909 64.5329 269.909 57.6506C269.909 50.7338 275.751 45.5032 283.289 45.5032ZM283.325 49.1509C278.348 49.1509 274.237 52.8673 274.237 57.6506C274.237 62.4338 278.384 66.2191 283.325 66.2191C288.266 66.2191 292.305 62.4338 292.305 57.6506C292.305 52.8673 288.266 49.1509 283.325 49.1509Z" fill="#333333"/>
<path d="M318.293 69.6947L313.676 62.3994C313.316 62.4338 312.919 62.4338 312.522 62.4338H306.536V69.6947H302.28V45.6065H312.522C318.978 45.6065 322.693 48.6003 322.693 53.8309C322.693 57.685 320.817 60.4035 317.463 61.6423L323.126 69.6947H318.293ZM306.536 58.7862H312.522C316.417 58.7862 318.653 57.2032 318.653 53.9341C318.653 50.7682 316.417 49.2541 312.522 49.2541H306.536V58.7862Z" fill="#333333"/>
<path d="M348.575 48.5315L333.211 66.047H348.756V69.6947H327.441V66.7697L342.841 49.2541H327.91V45.6065H348.575V48.5315Z" fill="#333333"/>
<path d="M370.828 64.2576H358.097L355.681 69.6947H351.245L362.389 45.6065H366.753L377.789 69.6947H373.244L370.828 64.2576ZM369.205 60.6444L364.444 49.9423L359.684 60.6444H369.205Z" fill="#333333"/>
<defs>
<clipPath id="clip0_2500_1501">
<rect width="165.622" height="60.042" fill="white"/>
</clipPath>
</defs>
</svg>
