<svg width="33" height="32" viewBox="0 0 33 32" fill="none" xmlns="http://www.w3.org/2000/svg">
<path opacity="0.2" d="M16.5 28C23.1274 28 28.5 22.6274 28.5 16C28.5 9.37258 23.1274 4 16.5 4C9.87258 4 4.5 9.37258 4.5 16C4.5 22.6274 9.87258 28 16.5 28Z" fill="#6E8C03" fill-opacity="0.2"/>
<path d="M16.5 28C23.1274 28 28.5 22.6274 28.5 16C28.5 9.37258 23.1274 4 16.5 4C9.87258 4 4.5 9.37258 4.5 16C4.5 22.6274 9.87258 28 16.5 28Z" fill="#6E8C03" fill-opacity="0.2" stroke="#6E8C03" stroke-width="2" stroke-miterlimit="10"/>
<path d="M15.7375 20.2377L11.5 16.0002L15.7375 11.7627" fill="#6E8C03" fill-opacity="0.2"/>
<path d="M15.7375 20.2377L11.5 16.0002L15.7375 11.7627" stroke="#6E8C03" stroke-width="2" stroke-linecap="round" stroke-linejoin="round"/>
<path d="M21.5 16H11.5" stroke="#6E8C03" stroke-width="2" stroke-linecap="round" stroke-linejoin="round"/>
</svg>
