<svg width="40" height="40" viewBox="0 0 40 40" fill="none" xmlns="http://www.w3.org/2000/svg">
<path opacity="0.2" d="M20 35C28.2843 35 35 28.2843 35 20C35 11.7157 28.2843 5 20 5C11.7157 5 5 11.7157 5 20C5 28.2843 11.7157 35 20 35Z" fill="white" fill-opacity="0.2"/>
<path d="M20 35C28.2843 35 35 28.2843 35 20C35 11.7157 28.2843 5 20 5C11.7157 5 5 11.7157 5 20C5 28.2843 11.7157 35 20 35Z" fill="white" fill-opacity="0.2" stroke="white" stroke-width="2" stroke-linecap="round" stroke-linejoin="round"/>
<path d="M26.25 13.75H23.75C23.257 13.7479 22.7684 13.8435 22.3125 14.0312C21.8566 14.219 21.4424 14.4951 21.0938 14.8437C20.7451 15.1924 20.469 15.6066 20.2813 16.0625C20.0936 16.5184 19.998 17.007 20 17.5V35" fill="white" fill-opacity="0.2"/>
<path d="M26.25 13.75H23.75C23.257 13.7479 22.7684 13.8435 22.3125 14.0312C21.8566 14.219 21.4424 14.4951 21.0938 14.8437C20.7451 15.1924 20.469 15.6066 20.2813 16.0625C20.0936 16.5184 19.998 17.007 20 17.5V35" stroke="white" stroke-width="2" stroke-linecap="round" stroke-linejoin="round"/>
<path d="M15 22.5H25" stroke="white" stroke-width="2" stroke-linecap="round" stroke-linejoin="round"/>
</svg>
