<svg width="64" height="62" viewBox="0 0 64 62" fill="none" xmlns="http://www.w3.org/2000/svg">
<path d="M62.4601 46.1655H58.6636C59.5905 45.3841 60.2919 44.2823 60.6616 42.7275C60.9054 41.7015 60.7945 40.7435 60.6772 39.7291C60.5425 38.5652 60.4033 37.3618 60.7529 35.8026C61.0216 34.6035 60.826 33.7034 60.1715 33.1277C59.3792 32.4308 58.0853 32.4013 56.3251 33.0405C55.7674 33.2433 55.2681 33.5496 54.8436 33.9398C53.7914 33.543 52.6577 33.3968 51.5252 33.5172C49.4724 33.7362 47.5726 34.9678 46.3625 36.7588C45.1299 35.9296 43.6205 35.2693 41.9333 34.8286C41.4318 34.6974 40.9201 34.9978 40.7892 35.4987C40.6584 35.9997 40.9584 36.5118 41.4594 36.6427C43.033 37.0537 44.414 37.6705 45.4992 38.4408C45.4702 38.5193 45.4421 38.5983 45.4156 38.678C45.1065 39.618 44.994 40.5906 45.0905 41.4902C45.2875 43.339 46.0609 44.9632 47.2509 46.1653H38.0771V43.2497H40.5695C41.0872 43.2497 41.507 42.8301 41.507 42.3122C41.507 41.7943 41.0872 41.3747 40.5695 41.3747H29.7786V37.8712C29.8913 37.8216 30.0087 37.7622 30.1327 37.6897C31.9502 36.6275 34.5579 36.0442 37.2873 36.0885C37.2925 36.0886 37.2976 36.0886 37.3029 36.0886C37.8135 36.0886 38.2315 35.679 38.24 35.1665C38.2485 34.6487 37.8356 34.2221 37.318 34.2137C36.2371 34.1964 35.1844 34.2667 34.1795 34.4156V29.4327C35.0104 28.8252 35.795 28.0391 36.4035 26.9838C37.2998 25.4285 37.3355 24.5766 37.4004 23.0302C37.4108 22.7827 37.4221 22.5117 37.438 22.2102C37.4385 22.2018 37.4379 22.1936 37.438 22.1852C37.4383 22.1771 37.4393 22.1691 37.4393 22.1608V19.8612C37.4393 17.1345 35.2209 14.916 32.4943 14.916H32.1665C33.5552 13.4962 34.4841 11.6551 34.4841 9.99983V8.07595C34.4841 5.6592 33.7103 3.6057 32.2461 2.1377C30.9344 0.822451 29.1691 0.0815762 27.2756 0.0517012C27.2658 0.0514512 27.2559 0.0514512 27.246 0.0517012C25.3524 0.0815762 23.5866 0.822451 22.274 2.13758C20.8085 3.60583 20.034 5.65933 20.034 8.07608V9.99995C20.034 11.6546 20.963 13.4957 22.3531 14.9161H22.0238C19.5931 14.9161 18.3961 16.402 17.7069 17.52L12.2481 26.3848C11.6307 25.2762 10.1002 22.8918 8.2905 22.7532C7.78675 22.7151 7.15513 22.7305 6.734 23.197C6.29088 23.6881 6.40213 24.3028 6.48325 24.7517L7.80225 32.2728C7.91925 32.9397 8.0115 33.4664 8.45187 33.8242C8.91313 34.1991 9.44375 34.1425 10.0585 34.0765C10.1846 34.0631 10.3266 34.0478 10.4876 34.0331C13.0895 33.7932 15.0632 34.5498 15.7907 34.8858C16.5784 35.2501 17.2757 35.6463 17.8932 36.0556V41.0803C17.8641 41.0803 17.8366 41.0806 17.8072 41.0806H10.2635C9.16088 41.0806 9.13113 41.0178 8.98888 40.7179C8.80538 40.3292 7.13013 36.9142 4.84662 36.7393C4.3415 36.7002 3.70788 36.716 3.28688 37.1841C2.8435 37.6768 2.95275 38.2702 3.0405 38.747L4.33938 46.1656H1.53638C0.68925 46.1655 0 46.8547 0 47.7018V55.0508C0 55.9 0.68925 56.5907 1.53638 56.5907H3.87287V58.3321C3.87287 60.3261 5.49512 61.9485 7.48912 61.9485H56.5074C58.5014 61.9485 60.1236 60.3261 60.1236 58.3321V56.5907H62.4601C63.3091 56.5907 64 55.9 64 55.0508V47.7018C64 46.8547 63.3092 46.1655 62.4601 46.1655ZM55.8815 40.5917C55.1274 38.9527 54.9768 37.4161 55.4571 36.2648C55.7513 35.5602 56.2729 35.0546 56.9655 34.8028C57.7109 34.5322 58.2141 34.4563 58.527 34.4563C58.7649 34.4563 58.8927 34.5003 58.9331 34.5357C58.9652 34.5641 59.0579 34.7923 58.9232 35.3927V35.3926C58.504 37.2619 58.6763 38.7495 58.8145 39.9448C58.9166 40.8273 59.0047 41.5893 58.8374 42.2939C58.3054 44.5311 57.0095 45.609 53.9546 45.9937C53.9626 45.9868 53.9707 45.9799 53.9787 45.9729C56.5717 43.7346 56.4444 41.8105 55.8815 40.5917ZM46.9549 41.2912C46.8865 40.6536 46.9701 39.9526 47.1956 39.2669C47.7799 37.5112 49.4067 35.6289 51.7241 35.3817C52.4015 35.3093 53.079 35.3685 53.725 35.5475C53.0425 37.1873 53.2032 39.2567 54.1786 41.3766C55.0962 43.3634 51.6039 45.4768 50.4963 46.0853C48.5384 45.3426 47.1943 43.5389 46.9549 41.2912ZM36.2021 43.2498V46.1655H28.0424C27.3019 46.0948 26.7208 45.4697 26.7208 44.7111C26.7208 43.9053 27.3762 43.2498 28.182 43.2498H36.2021ZM32.3045 34.8013C31.1554 35.1103 30.1016 35.5359 29.1864 36.0708C29.1684 36.0813 29.1518 36.091 29.1361 36.0998C29.0317 35.9766 28.8966 35.8032 28.7717 35.6432C28.6192 35.4477 28.4295 35.2042 28.2016 34.9248C27.7158 34.3328 27.0207 33.6213 26.3037 32.969L31.4674 30.8857C31.7369 30.7767 32.018 30.656 32.3044 30.5227V34.8013H32.3045ZM24.1625 31.8112C23.8768 31.9256 23.5615 31.9207 23.2747 31.7981C22.9882 31.6753 22.7675 31.4503 22.6525 31.1621C22.5375 30.8763 22.5416 30.561 22.6641 30.2743C22.787 29.9868 23.0129 29.7653 23.2999 29.6507C23.3083 29.6474 23.3165 29.6438 23.3249 29.6403L28.061 27.5882L29.1745 29.7892L24.1625 31.8112ZM27.2607 1.92658C29.5934 1.96995 32.0816 3.56283 32.5359 6.94433C30.4876 6.55383 26.3094 5.71745 25.8236 5.59158C25.8234 5.59145 25.8232 5.59145 25.823 5.59133C25.5509 5.52108 25.2994 5.49045 25.0655 5.49045C24.179 5.49045 23.5483 5.9292 23.0198 6.29683C22.6955 6.52245 22.3815 6.74083 21.9881 6.90058C22.4583 3.5492 24.9368 1.96983 27.2607 1.92658ZM21.9089 9.99995V8.88258C22.9132 8.65295 23.5775 8.19283 24.0905 7.83595C24.7055 7.4082 24.903 7.28995 25.3536 7.40658C25.6901 7.49358 30.5523 8.4882 32.609 8.8667V9.99995C32.609 11.6113 31.0709 13.9728 28.9511 14.9818C28.9215 14.9936 28.8925 15.0066 28.8645 15.0211C28.7483 15.074 28.6309 15.1238 28.5115 15.1682C28.0243 15.3467 27.6385 15.4262 27.2607 15.4262C26.8857 15.4262 26.4871 15.3442 26.0109 15.1697C25.8969 15.1273 25.7836 15.0792 25.671 15.0278C25.641 15.0117 25.6097 14.9975 25.578 14.9846C23.6084 14.0392 21.9089 11.7777 21.9089 9.99995ZM29.4237 16.8232V17.1045C29.4237 18.4691 28.4535 19.5793 27.2609 19.5793C26.0662 19.5793 25.0944 18.4691 25.0944 17.1045V16.8228C25.183 16.8601 25.272 16.8955 25.3616 16.9288C26.0554 17.183 26.6589 17.3013 27.2609 17.3013C27.8604 17.3013 28.4629 17.183 29.1607 16.9273C29.2487 16.8946 29.3365 16.8597 29.4237 16.8232ZM19.3032 18.5036C20.053 17.2873 20.8412 16.7912 22.0238 16.7912H23.2192V17.1046C23.2192 19.5031 25.0322 21.4545 27.2607 21.4545C29.4872 21.4545 31.2986 19.5032 31.2986 17.1046V16.7912H32.4941C34.1869 16.7912 35.5641 18.1686 35.5641 19.8615V22.1373C35.5486 22.4356 35.5373 22.7053 35.5269 22.9518C35.4644 24.4413 35.4455 24.8908 34.7789 26.0477C34.0205 27.3627 32.8591 28.2762 30.9185 29.0833L29.7757 26.8243C30.2122 26.596 30.523 26.3546 30.9618 25.8943C31.0084 25.8456 31.0494 25.792 31.0844 25.7343L32.2146 23.874C32.4835 23.4315 32.3428 22.8548 31.9002 22.586C31.4579 22.3168 30.8811 22.4578 30.6122 22.9003L29.5359 24.672C29.1781 25.0391 29.0151 25.1294 28.4754 25.3652L22.5907 27.9151C22.0632 28.1286 21.6184 28.4808 21.2891 28.9305C20.452 28.4691 19.5492 28.1308 18.6174 27.8782L20.5263 24.7748C20.7975 24.3338 20.6599 23.7565 20.2189 23.4851C19.7779 23.2139 19.2005 23.3516 18.9293 23.7924L16.6694 27.4663C15.7636 27.3211 14.8546 27.2291 13.9736 27.159L19.3032 18.5036ZM13.1484 32.2218C12.3061 32.1111 11.3524 32.0704 10.3164 32.166C10.1452 32.1816 9.7525 32.2236 9.69987 32.229C9.68062 32.1285 8.37537 24.6835 8.37537 24.6835C9.116 24.9985 10.2316 26.4568 10.8439 27.7421C11.192 28.4788 11.5619 28.7909 12.0573 28.9093C12.6407 28.9844 13.0656 28.972 13.258 28.9852C13.506 29.003 13.7577 29.0226 14.0107 29.0436L13.1484 32.2218ZM19.7682 37.5467C21.2393 38.9554 21.8734 40.2657 21.9527 40.7592C21.6698 40.9038 20.9373 41 19.7682 41.047V37.5467ZM11.9026 42.9557H17.8072C21.4464 42.9557 22.6989 42.7408 23.391 41.9981C23.6165 41.7559 23.8759 41.3327 23.8307 40.693C23.7124 38.9627 21.3254 35.3797 16.5776 33.1839C16.2481 33.0317 15.7037 32.807 14.988 32.6026L15.8981 29.2479C17.6154 29.4879 19.3135 29.9072 20.694 30.7533C20.6965 31.1285 20.7686 31.503 20.9124 31.8598C21.2124 32.6112 21.7891 33.2012 22.5364 33.5215C22.9223 33.6868 23.3287 33.7697 23.7354 33.7697C23.9255 33.7697 24.1157 33.7514 24.3037 33.7152C25.1809 34.4376 26.1619 35.3948 26.7506 36.1123C26.9638 36.3736 27.1388 36.5981 27.2932 36.7962C27.4976 37.0584 27.6945 37.31 27.9037 37.5188V41.3875C26.194 41.5294 24.8459 42.9655 24.8459 44.7112C24.8459 45.2323 24.9661 45.7257 25.1801 46.1656H11.9026V42.9557ZM7.294 41.5198C7.9255 42.8513 9.01688 42.948 10.0276 42.955V46.1655H6.24288L4.93038 38.6645C5.67637 38.9572 6.72587 40.3163 7.294 41.5198ZM62.125 54.7158H34.2376C33.7199 54.7158 33.3001 55.1354 33.3001 55.6533C33.3001 56.1712 33.7199 56.5908 34.2376 56.5908H58.2486V58.3322C58.2486 59.2924 57.4675 60.0736 56.5074 60.0736H7.48912C6.529 60.0736 5.74788 59.2924 5.74788 58.3322V56.5908H30.1131C30.6309 56.5908 31.0506 56.1712 31.0506 55.6533C31.0506 55.1354 30.6309 54.7158 30.1131 54.7158H1.875V48.0406H5.45138C5.45225 48.0406 5.45325 48.0407 5.45412 48.0407C5.45475 48.0407 62.125 48.0406 62.125 48.0406V54.7158Z" fill="#B4C37C"/>
</svg>
