<svg width="32" height="32" viewBox="0 0 32 32" fill="none" xmlns="http://www.w3.org/2000/svg">
<path opacity="0.2" d="M10.9458 19.6937L11.0625 19.8961V19.6625V4.5C11.0625 3.85353 11.3193 3.23355 11.7764 2.77643C12.2335 2.31931 12.8535 2.0625 13.5 2.0625C14.1465 2.0625 14.7664 2.31931 15.2236 2.77643C15.6807 3.23355 15.9375 3.85353 15.9375 4.5V12.5H16H16.0625C16.0625 11.8535 16.3193 11.2335 16.7764 10.7764C17.2335 10.3193 17.8535 10.0625 18.5 10.0625C19.1465 10.0625 19.7664 10.3193 20.2236 10.7764C20.6807 11.2335 20.9375 11.8535 20.9375 12.5V14H21H21.0625C21.0625 13.3535 21.3193 12.7335 21.7764 12.2764C22.2335 11.8193 22.8535 11.5625 23.5 11.5625C24.1465 11.5625 24.7664 11.8193 25.2236 12.2764C25.6807 12.7335 25.9375 13.3535 25.9375 14V19C25.9375 20.305 25.6805 21.5972 25.181 22.8029C24.6816 24.0086 23.9497 25.1041 23.0269 26.0269C22.1041 26.9497 21.0086 27.6816 19.8029 28.1811C18.5972 28.6805 17.305 28.9375 16 28.9375C13.2519 28.9375 11.2685 28.1926 9.463 26.3824C7.65275 24.5675 6.01917 21.6799 3.98146 17.3857L3.98164 17.3856L3.97914 17.3813C3.6559 16.8205 3.56869 16.1542 3.73668 15.5291C3.90468 14.9039 4.31413 14.3711 4.87496 14.0479C5.43578 13.7247 6.10205 13.6374 6.72718 13.8054C7.35231 13.9734 7.8851 14.3829 8.20834 14.9437L10.9458 19.6937Z" fill="#6E8C03" fill-opacity="0.2" stroke="white" stroke-width="0.125"/>
<path d="M21 14V12.5C21 11.837 20.7366 11.2011 20.2678 10.7322C19.7989 10.2634 19.163 10 18.5 10C17.837 10 17.2011 10.2634 16.7322 10.7322C16.2634 11.2011 16 11.837 16 12.5V4.5C16 3.83696 15.7366 3.20107 15.2678 2.73223C14.7989 2.26339 14.163 2 13.5 2C12.837 2 12.2011 2.26339 11.7322 2.73223C11.2634 3.20107 11 3.83696 11 4.5V19.6625L8.2625 14.9125C7.93097 14.3373 7.38454 13.9174 6.7434 13.7451C6.10226 13.5728 5.41893 13.6622 4.84375 13.9937C4.26856 14.3253 3.84862 14.8717 3.67632 15.5128C3.50402 16.154 3.59347 16.8373 3.925 17.4125C8 26 10.475 29 16 29C17.3132 29 18.6136 28.7413 19.8268 28.2388C21.0401 27.7362 22.1425 26.9997 23.0711 26.0711C23.9996 25.1425 24.7362 24.0401 25.2388 22.8268C25.7413 21.6136 26 20.3132 26 19V14C26 13.337 25.7366 12.7011 25.2678 12.2322C24.7989 11.7634 24.163 11.5 23.5 11.5C22.837 11.5 22.2011 11.7634 21.7322 12.2322C21.2634 12.7011 21 13.337 21 14Z" fill="#6E8C03" fill-opacity="0.2" stroke="white" stroke-width="2" stroke-linecap="round" stroke-linejoin="round"/>
</svg>
