<svg width="24" height="24" viewBox="0 0 24 24" fill="none" xmlns="http://www.w3.org/2000/svg">
<path opacity="0.2" d="M16.125 3.375H7.875C6.68153 3.375 5.53693 3.84911 4.69302 4.69302C3.84911 5.53693 3.375 6.68153 3.375 7.875V16.125C3.375 17.3185 3.84911 18.4631 4.69302 19.307C5.53693 20.1509 6.68153 20.625 7.875 20.625H16.125C17.3185 20.625 18.4631 20.1509 19.307 19.307C20.1509 18.4631 20.625 17.3185 20.625 16.125V7.875C20.625 6.68153 20.1509 5.53693 19.307 4.69302C18.4631 3.84911 17.3185 3.375 16.125 3.375ZM12 15.75C11.2583 15.75 10.5333 15.5301 9.91661 15.118C9.29993 14.706 8.81928 14.1203 8.53545 13.4351C8.25162 12.7498 8.17736 11.9958 8.32205 11.2684C8.46675 10.541 8.8239 9.8728 9.34835 9.34835C9.8728 8.8239 10.541 8.46675 11.2684 8.32205C11.9958 8.17736 12.7498 8.25162 13.4351 8.53545C14.1203 8.81928 14.706 9.29993 15.118 9.91661C15.5301 10.5333 15.75 11.2583 15.75 12C15.75 12.9946 15.3549 13.9484 14.6517 14.6517C13.9484 15.3549 12.9946 15.75 12 15.75Z" fill="#6E8C03" fill-opacity="0.2"/>
<path d="M16.125 3.375H7.875C5.38972 3.375 3.375 5.38972 3.375 7.875V16.125C3.375 18.6103 5.38972 20.625 7.875 20.625H16.125C18.6103 20.625 20.625 18.6103 20.625 16.125V7.875C20.625 5.38972 18.6103 3.375 16.125 3.375Z" fill="#6E8C03" fill-opacity="0.2" stroke="#6E8C03" stroke-width="2" stroke-linecap="round" stroke-linejoin="round"/>
<path d="M16.875 8.25C17.4963 8.25 18 7.74632 18 7.125C18 6.50368 17.4963 6 16.875 6C16.2537 6 15.75 6.50368 15.75 7.125C15.75 7.74632 16.2537 8.25 16.875 8.25Z" fill="#6E8C03"/>
<path d="M12 15.75C14.0711 15.75 15.75 14.0711 15.75 12C15.75 9.92893 14.0711 8.25 12 8.25C9.92893 8.25 8.25 9.92893 8.25 12C8.25 14.0711 9.92893 15.75 12 15.75Z" fill="white" stroke="#6E8C03" stroke-width="2" stroke-miterlimit="10"/>
</svg>
