<svg width="32" height="33" viewBox="0 0 32 33" fill="none" xmlns="http://www.w3.org/2000/svg">
<g clip-path="url(#clip0_2213_4001)">
<path opacity="0.2" d="M22 4.54639H10C8.4087 4.54639 6.88258 5.17853 5.75736 6.30375C4.63214 7.42896 4 8.95509 4 10.5464V22.5464C4 24.1377 4.63214 25.6638 5.75736 26.789C6.88258 27.9142 8.4087 28.5464 10 28.5464H22C23.5913 28.5464 25.1174 27.9142 26.2426 26.789C27.3679 25.6638 28 24.1377 28 22.5464V10.5464C28 8.95509 27.3679 7.42896 26.2426 6.30375C25.1174 5.17853 23.5913 4.54639 22 4.54639ZM16 21.5464C15.0111 21.5464 14.0444 21.2531 13.2221 20.7037C12.3999 20.1543 11.759 19.3734 11.3806 18.4598C11.0022 17.5462 10.9031 16.5408 11.0961 15.5709C11.289 14.601 11.7652 13.7101 12.4645 13.0109C13.1637 12.3116 14.0546 11.8354 15.0245 11.6425C15.9945 11.4495 16.9998 11.5486 17.9134 11.927C18.827 12.3054 19.6079 12.9463 20.1573 13.7685C20.7068 14.5908 21 15.5575 21 16.5464C21 17.8725 20.4732 19.1442 19.5355 20.0819C18.5979 21.0196 17.3261 21.5464 16 21.5464Z" fill="#6E8C03"/>
<path d="M22 4.54639H10C6.68629 4.54639 4 7.23268 4 10.5464V22.5464C4 25.8601 6.68629 28.5464 10 28.5464H22C25.3137 28.5464 28 25.8601 28 22.5464V10.5464C28 7.23268 25.3137 4.54639 22 4.54639Z" stroke="#6E8C03" stroke-width="2" stroke-linecap="round" stroke-linejoin="round"/>
<path d="M16 21.5464C18.7614 21.5464 21 19.3078 21 16.5464C21 13.785 18.7614 11.5464 16 11.5464C13.2386 11.5464 11 13.785 11 16.5464C11 19.3078 13.2386 21.5464 16 21.5464Z" stroke="#6E8C03" stroke-width="2" stroke-miterlimit="10"/>
<path d="M22.5 11.5464C23.3284 11.5464 24 10.8748 24 10.0464C24 9.21796 23.3284 8.54639 22.5 8.54639C21.6716 8.54639 21 9.21796 21 10.0464C21 10.8748 21.6716 11.5464 22.5 11.5464Z" fill="#6E8C03"/>
</g>
<defs>
<clipPath id="clip0_2213_4001">
<rect width="32" height="32" fill="white" transform="translate(0 0.546387)"/>
</clipPath>
</defs>
</svg>
