<svg width="40" height="40" viewBox="0 0 40 40" fill="none" xmlns="http://www.w3.org/2000/svg">
<path opacity="0.2" d="M26.875 5.625H13.125C11.1359 5.625 9.22822 6.41518 7.8217 7.8217C6.41518 9.22822 5.625 11.1359 5.625 13.125V26.875C5.625 28.8641 6.41518 30.7718 7.8217 32.1783C9.22822 33.5848 11.1359 34.375 13.125 34.375H26.875C28.8641 34.375 30.7718 33.5848 32.1783 32.1783C33.5848 30.7718 34.375 28.8641 34.375 26.875V13.125C34.375 11.1359 33.5848 9.22822 32.1783 7.8217C30.7718 6.41518 28.8641 5.625 26.875 5.625ZM20 26.25C18.7639 26.25 17.5555 25.8834 16.5277 25.1967C15.4999 24.5099 14.6988 23.5338 14.2258 22.3918C13.7527 21.2497 13.6289 19.9931 13.8701 18.7807C14.1112 17.5683 14.7065 16.4547 15.5806 15.5806C16.4547 14.7065 17.5683 14.1112 18.7807 13.8701C19.9931 13.6289 21.2497 13.7527 22.3918 14.2258C23.5338 14.6988 24.5099 15.4999 25.1967 16.5277C25.8834 17.5555 26.25 18.7639 26.25 20C26.25 21.6576 25.5915 23.2473 24.4194 24.4194C23.2473 25.5915 21.6576 26.25 20 26.25Z" fill="white" fill-opacity="0.2"/>
<path d="M26.875 5.625H13.125C8.98286 5.625 5.625 8.98286 5.625 13.125V26.875C5.625 31.0171 8.98286 34.375 13.125 34.375H26.875C31.0171 34.375 34.375 31.0171 34.375 26.875V13.125C34.375 8.98286 31.0171 5.625 26.875 5.625Z" fill="white" fill-opacity="0.2" stroke="white" stroke-width="2" stroke-linecap="round" stroke-linejoin="round"/>
<path d="M28.125 13.75C29.1605 13.75 30 12.9105 30 11.875C30 10.8395 29.1605 10 28.125 10C27.0895 10 26.25 10.8395 26.25 11.875C26.25 12.9105 27.0895 13.75 28.125 13.75Z" fill="white"/>
<path d="M20 26.25C23.4518 26.25 26.25 23.4518 26.25 20C26.25 16.5482 23.4518 13.75 20 13.75C16.5482 13.75 13.75 16.5482 13.75 20C13.75 23.4518 16.5482 26.25 20 26.25Z" stroke="white" stroke-width="2" stroke-miterlimit="10"/>
</svg>
