<svg width="160" height="120" viewBox="0 0 160 120" fill="none" xmlns="http://www.w3.org/2000/svg">
<path fill-rule="evenodd" clip-rule="evenodd" d="M63.4183 13.3957L37.3628 50.7981L37.3623 50.7994L36.4825 51.2576L15.095 51.2219L14.2026 49.5655L19.0128 42.2334H16.3069L15.4128 40.577L20.518 32.7952H19.0102L18.1174 31.1363L24.8863 20.8838H26.6714L30.8627 27.2318L35.1099 20.7576H31.3278L30.435 19.0986L41.6169 2.16211H43.4021L54.584 19.0986L53.6916 20.7576H49.909L52.6834 24.9867L62.4648 10.9021L63.5126 10.4559L104.596 17.0323H125.511L126.388 17.4901L144.186 42.9922L142.432 44.2166L125.514 19.975L108.593 44.2192L107.712 44.6787H98.3822V42.5301H107.152L123.455 19.1718H105.074L96.0174 32.1492L94.2555 30.9197L102.653 18.8876C96.1178 17.8415 72.5231 14.0645 65.734 12.978L90.8946 49.1185H143.309V51.2576H90.336L89.4583 50.7994L63.4183 13.3957ZM29.5849 29.1793L25.7786 23.4144L20.9977 30.6557H22.4986L23.3931 32.312L18.288 40.0942H20.9934L21.8879 41.7501L17.0756 49.0857L24.2601 49.0978C25.8225 46.7158 32.6232 36.3491 32.6232 36.3491H26.8622L25.9677 34.6932L29.5849 29.1793ZM26.8157 49.1021L35.9256 49.1176L51.3682 26.8813L47.0339 20.2748L47.9284 18.6184H51.7036L42.5097 4.69273L33.3153 18.6184H37.091L37.9851 20.2748L31.7598 29.7642L28.8433 34.21H34.6043L35.4984 35.8663L26.8157 49.1021ZM131.363 32.8852V42.6128L130.289 43.6869H120.974L119.899 42.6128V32.8852L120.974 31.8111H130.289L131.363 32.8852ZM124.557 33.9598H122.048V41.5383H124.557V33.9598ZM126.706 41.5383H129.215V33.9598H126.706V41.5383ZM71.8745 33.0743V48.6482L70.8 49.7223H55.8867L54.8122 48.6482V33.0743L55.8867 32.0002H70.8L71.8745 33.0743ZM62.2693 34.1488H56.9608V39.7871H62.2693V34.1488ZM69.7259 39.7871V34.1488H64.4174V39.7871H69.7259ZM64.4174 47.5737H69.7259V41.9353H64.4174V47.5737ZM56.9608 41.9353V47.5737H62.2693V41.9353H56.9608Z" fill="#242424"/>
<path d="M31.8548 86.0177V88.5432H14.8726V86.5692L27.6455 70.7482H15.0758V68.2227H31.4774V70.1967L18.7625 86.0177H31.8548Z" fill="#242424"/>
<path d="M38.6476 68.2227H35.7446V88.5432H38.6476V68.2227Z" fill="#242424"/>
<path d="M59.4906 86.0177V88.5432H44.7437V68.2227H59.0842V70.7482H47.6466V76.9895H57.8359V79.457H47.6466V86.0177H59.4906Z" fill="#242424"/>
<path d="M64.1934 68.2227H67.0963V86.0177H78.0984V88.5432H64.1934V68.2227Z" fill="#242424"/>
<path d="M90.2327 88.7753C88.1717 88.7753 86.3428 88.3108 84.6881 87.4109C83.0335 86.511 81.7562 85.2917 80.8272 83.6951C79.8693 82.0985 79.4048 80.3277 79.4048 78.3828C79.4048 76.4378 79.8693 74.667 80.8272 73.0704C81.7562 71.4738 83.0335 70.2255 84.6881 69.3256C86.3428 68.4257 88.1717 67.9902 90.2327 67.9902C92.2648 67.9902 94.0937 68.4257 95.7483 69.3256C97.403 70.2255 98.6803 71.4738 99.6092 73.0413C100.538 74.638 101.003 76.4088 101.003 78.3828C101.003 80.3568 100.538 82.1275 99.6092 83.6951C98.6803 85.2917 97.403 86.511 95.7483 87.4109C94.0937 88.3108 92.2648 88.7753 90.2327 88.7753ZM90.2327 86.1917C91.7132 86.1917 93.0486 85.8433 94.2678 85.1756C95.429 84.508 96.387 83.55 97.0547 82.3598C97.7514 81.1696 98.0997 79.8633 98.0997 78.3828C98.0997 76.9023 97.7514 75.5669 97.0547 74.3767C96.387 73.1865 95.458 72.2576 94.2388 71.5899C93.0486 70.9222 91.7132 70.5738 90.2327 70.5738C88.7522 70.5738 87.3879 70.9222 86.1686 71.5899C84.9784 72.2576 84.0205 73.1865 83.3238 74.3767C82.6561 75.5669 82.3077 76.9023 82.3077 78.3828C82.3077 79.8633 82.6561 81.1696 83.3238 82.3598C84.0205 83.55 84.9784 84.508 86.1686 85.1756C87.3879 85.8433 88.7522 86.1917 90.2327 86.1917Z" fill="#242424"/>
<path d="M122.92 68.2227V88.5432H120.539L108.347 73.3899V88.5432H105.444V68.2227H107.825L120.017 83.376V68.2227H122.92Z" fill="#242424"/>
<path d="M143.763 86.0177V88.5432H129.016V68.2227H143.357V70.7482H131.919V76.9895H142.108V79.457H131.919V86.0177H143.763Z" fill="#242424"/>
<path d="M31.5499 97.5088L24.757 117.829H21.709L16.1643 101.602L10.6197 117.829H7.51358L0.720703 97.5088H3.71073L9.19728 114.027L14.9161 97.5088H17.5868L23.1894 114.114L28.7921 97.5088H31.5499Z" fill="#242424"/>
<path d="M50.419 115.304V117.829H33.4368V115.855L46.2097 100.034H33.64V97.5088H50.0416V99.4828L37.3267 115.304H50.419Z" fill="#242424"/>
<path d="M68.1561 107.553H70.9429V115.478C69.9268 116.32 68.7657 116.958 67.4303 117.394C66.095 117.829 64.7016 118.061 63.2501 118.061C61.189 118.061 59.3601 117.597 57.7055 116.697C56.0508 115.797 54.7735 114.578 53.8446 112.981C52.8866 111.414 52.4221 109.643 52.4221 107.669C52.4221 105.695 52.8866 103.924 53.8446 102.327C54.7735 100.731 56.0798 99.5116 57.7345 98.6117C59.3892 97.7118 61.2471 97.2764 63.3081 97.2764C64.9338 97.2764 66.4143 97.5376 67.7496 98.0892C69.056 98.6117 70.1881 99.3955 71.1171 100.412L69.3172 102.211C67.6916 100.644 65.7176 99.86 63.4243 99.86C61.8857 99.86 60.4923 100.179 59.2731 100.847C58.0248 101.515 57.0668 102.444 56.3701 103.634C55.6734 104.824 55.3251 106.188 55.3251 107.669C55.3251 109.149 55.6734 110.456 56.3701 111.646C57.0668 112.836 58.0248 113.794 59.2731 114.462C60.4923 115.129 61.8567 115.478 63.3952 115.478C65.2241 115.478 66.7917 115.042 68.1561 114.171V107.553Z" fill="#242424"/>
<path d="M85.6607 118.061C83.5996 118.061 81.7708 117.597 80.1161 116.697C78.4614 115.797 77.1841 114.578 76.2552 112.981C75.2972 111.385 74.8328 109.614 74.8328 107.669C74.8328 105.724 75.2972 103.953 76.2552 102.356C77.1841 100.76 78.4614 99.5116 80.1161 98.6117C81.7708 97.7118 83.5996 97.2763 85.6607 97.2763C87.6928 97.2763 89.5216 97.7118 91.1763 98.6117C92.831 99.5116 94.1083 100.76 95.0372 102.327C95.9662 103.924 96.4306 105.695 96.4306 107.669C96.4306 109.643 95.9662 111.414 95.0372 112.981C94.1083 114.578 92.831 115.797 91.1763 116.697C89.5216 117.597 87.6928 118.061 85.6607 118.061ZM85.6607 115.478C87.1412 115.478 88.4766 115.129 89.6958 114.462C90.857 113.794 91.815 112.836 92.4826 111.646C93.1793 110.456 93.5277 109.149 93.5277 107.669C93.5277 106.188 93.1793 104.853 92.4826 103.663C91.815 102.473 90.886 101.544 89.6668 100.876C88.4766 100.208 87.1412 99.86 85.6607 99.86C84.1802 99.86 82.8158 100.208 81.5966 100.876C80.4064 101.544 79.4484 102.473 78.7517 103.663C78.0841 104.853 77.7357 106.188 77.7357 107.669C77.7357 109.149 78.0841 110.456 78.7517 111.646C79.4484 112.836 80.4064 113.794 81.5966 114.462C82.8158 115.129 84.1802 115.478 85.6607 115.478ZM87.4315 92.0801H90.9731L86.0962 95.8539H83.4835L87.4315 92.0801Z" fill="#242424"/>
<path d="M114.458 117.829L110.074 111.588C109.523 111.617 109.116 111.646 108.797 111.646H103.775V117.829H100.872V97.5088H108.797C111.439 97.5088 113.5 98.1474 115.009 99.3957C116.519 100.644 117.274 102.386 117.274 104.592C117.274 106.16 116.896 107.495 116.112 108.598C115.329 109.701 114.226 110.514 112.803 111.007L117.622 117.829H114.458ZM108.71 109.179C110.539 109.179 111.961 108.772 112.919 107.988C113.877 107.205 114.371 106.072 114.371 104.592C114.371 103.111 113.877 101.979 112.919 101.196C111.961 100.412 110.539 100.034 108.71 100.034H103.775V109.179H108.71Z" fill="#242424"/>
<path d="M137.159 115.304V117.829H120.177V115.855L132.95 100.034H120.38V97.5088H136.782V99.4828L124.067 115.304H137.159Z" fill="#242424"/>
<path d="M153.996 112.749H143.197L140.962 117.829H137.972L147.174 97.5088H150.048L159.279 117.829H156.231L153.996 112.749ZM152.98 110.427L148.596 100.47L144.213 110.427H152.98Z" fill="#242424"/>
</svg>
