<svg width="32" height="33" viewBox="0 0 32 33" fill="none" xmlns="http://www.w3.org/2000/svg">
<g clip-path="url(#clip0_2213_3990)">
<path opacity="0.2" d="M16 4.54639C13.6266 4.54639 11.3066 5.25017 9.33316 6.56875C7.35977 7.88733 5.8217 9.76147 4.91345 11.9542C4.0052 14.1469 3.76756 16.5597 4.23058 18.8875C4.6936 21.2152 5.83649 23.3534 7.51472 25.0317C9.19295 26.7099 11.3312 27.8528 13.6589 28.3158C15.9867 28.7788 18.3995 28.5412 20.5922 27.6329C22.7849 26.7247 24.6591 25.1866 25.9776 23.2132C27.2962 21.2398 28 18.9198 28 16.5464C28 13.3638 26.7357 10.3115 24.4853 8.06111C22.2348 5.81067 19.1826 4.54639 16 4.54639Z" fill="#6E8C03"/>
<path d="M16 21.5464C18.7614 21.5464 21 19.3078 21 16.5464C21 13.785 18.7614 11.5464 16 11.5464C13.2386 11.5464 11 13.785 11 16.5464C11 19.3078 13.2386 21.5464 16 21.5464Z" stroke="#6E8C03" stroke-width="2" stroke-linecap="round" stroke-linejoin="round"/>
<path d="M23 26.5464C21.0988 27.8101 18.4538 28.5464 16 28.5464C13.6266 28.5464 11.3066 27.8426 9.33316 26.524C7.35977 25.2054 5.8217 23.3313 4.91345 21.1386C4.0052 18.9459 3.76756 16.5331 4.23058 14.2053C4.6936 11.8775 5.83649 9.73934 7.51472 8.06111C9.19295 6.38288 11.3312 5.23999 13.6589 4.77697C15.9867 4.31395 18.3995 4.55159 20.5922 5.45984C22.7849 6.36809 24.6591 7.90616 25.9776 9.87955C27.2962 11.8529 28 14.173 28 16.5464C28 19.3076 27 21.5464 24.5 21.5464C22 21.5464 21 19.3076 21 16.5464V11.5464" stroke="#6E8C03" stroke-width="2" stroke-linecap="round" stroke-linejoin="round"/>
</g>
<defs>
<clipPath id="clip0_2213_3990">
<rect width="32" height="32" fill="white" transform="translate(0 0.546387)"/>
</clipPath>
</defs>
</svg>
