<svg width="32" height="33" viewBox="0 0 32 33" fill="none" xmlns="http://www.w3.org/2000/svg">
<g clip-path="url(#clip0_2213_3979)">
<path opacity="0.2" d="M16 3.54639C13.3478 3.54639 10.8043 4.59996 8.92893 6.47532C7.05357 8.35068 6 10.8942 6 13.5464C6 22.5464 16 29.5464 16 29.5464C16 29.5464 26 22.5464 26 13.5464C26 10.8942 24.9464 8.35068 23.0711 6.47532C21.1957 4.59996 18.6522 3.54639 16 3.54639ZM16 17.5464C15.2089 17.5464 14.4355 17.3118 13.7777 16.8723C13.1199 16.4327 12.6072 15.808 12.3045 15.0771C12.0017 14.3462 11.9225 13.5419 12.0769 12.766C12.2312 11.9901 12.6122 11.2774 13.1716 10.718C13.731 10.1585 14.4437 9.77759 15.2196 9.62325C15.9956 9.4689 16.7998 9.54812 17.5307 9.85087C18.2616 10.1536 18.8864 10.6663 19.3259 11.3241C19.7654 11.9819 20 12.7553 20 13.5464C20 14.6073 19.5786 15.6247 18.8284 16.3748C18.0783 17.125 17.0609 17.5464 16 17.5464Z" fill="#6E8C03"/>
<path d="M16 17.5464C18.2091 17.5464 20 15.7555 20 13.5464C20 11.3372 18.2091 9.54639 16 9.54639C13.7909 9.54639 12 11.3372 12 13.5464C12 15.7555 13.7909 17.5464 16 17.5464Z" stroke="#6E8C03" stroke-width="2" stroke-linecap="round" stroke-linejoin="round"/>
<path d="M26 13.5464C26 22.5464 16 29.5464 16 29.5464C16 29.5464 6 22.5464 6 13.5464C6 10.8942 7.05357 8.35068 8.92893 6.47532C10.8043 4.59996 13.3478 3.54639 16 3.54639C18.6522 3.54639 21.1957 4.59996 23.0711 6.47532C24.9464 8.35068 26 10.8942 26 13.5464Z" stroke="#6E8C03" stroke-width="2" stroke-linecap="round" stroke-linejoin="round"/>
</g>
<defs>
<clipPath id="clip0_2213_3979">
<rect width="32" height="32" fill="white" transform="translate(0 0.546387)"/>
</clipPath>
</defs>
</svg>
