<svg width="64" height="64" viewBox="0 0 64 64" fill="none" xmlns="http://www.w3.org/2000/svg">
<g clip-path="url(#clip0_4001_1040)">
<path d="M27.0695 20.6575C32.7257 20.6575 37.328 16.0557 37.328 10.3989C37.328 4.7427 32.7257 0.140381 27.0695 0.140381C21.4127 0.140381 16.8109 4.7427 16.8109 10.3989C16.8109 16.0557 21.4127 20.6575 27.0695 20.6575ZM26.0436 2.26322V4.2438H28.0953V2.26322C31.8005 2.72756 34.7393 5.66787 35.2052 9.37307H33.2246V11.4248H35.2052C34.7408 15.1305 31.8005 18.0693 28.0953 18.5351V16.5541H26.0436V18.5351C22.3379 18.0703 19.3991 15.1305 18.9333 11.4248H20.9143V9.37307H18.9333C19.3991 5.66787 22.3379 2.72856 26.0436 2.26322Z" fill="#B4C37C"/>
<path d="M28.0953 10.8237V6.29553H26.0436V9.97418L24.2924 11.7253L25.743 13.176L28.0953 10.8237Z" fill="#B4C37C"/>
<path d="M64.0002 48.3556C64.0002 47.0201 63.1392 45.8916 61.9485 45.4668V27.8385C61.9485 26.1419 60.5675 24.7609 58.871 24.7609H53.2132C51.0824 22.1822 47.8676 20.6575 44.509 20.6575C41.1499 20.6575 37.9351 22.1822 35.8043 24.7609H30.147C28.45 24.7609 27.0695 26.1419 27.0695 27.8385V45.4668C25.8783 45.8916 25.0178 47.0201 25.0178 48.3556V59.64H27.0695V60.6658C27.0695 62.3629 28.45 63.7434 30.147 63.7434H34.2505C35.947 63.7434 37.328 62.3629 37.328 60.6658V59.64H51.69V60.6658C51.69 62.3629 53.0705 63.7434 54.7676 63.7434H58.871C60.5675 63.7434 61.9485 62.3629 61.9485 60.6658V59.64H64.0002V48.3556ZM41.4314 37.9743C39.3732 37.7995 37.9822 37.4588 36.5511 37.1012C35.5388 36.8477 34.5044 36.5913 33.2246 36.3944V33.9936C33.2246 33.4286 33.6849 32.9677 34.2505 32.9677H40.4056C40.9706 32.9677 41.4314 33.4286 41.4314 33.9936V37.9743ZM36.0527 39.0923C38.131 39.6122 40.2794 40.1487 44.509 40.1487C48.7381 40.1487 50.8865 39.6122 52.9648 39.0923C54.8247 38.6275 56.6079 38.1897 59.8968 38.1125V45.278H29.1212V38.1135C32.4096 38.1907 34.1939 38.6275 36.0527 39.0923ZM55.7934 36.3954C54.5141 36.5923 53.4797 36.8487 52.4664 37.1022C51.0353 37.4599 49.6433 37.7995 47.5866 37.9753V33.9936C47.5866 33.4286 48.0469 32.9677 48.6124 32.9677H54.7676C55.3326 32.9677 55.7934 33.4286 55.7934 33.9936V36.3954ZM30.147 26.8126H36.8151L37.1226 26.4024C38.8573 24.0902 41.6178 22.7092 44.509 22.7092C47.3997 22.7092 50.1602 24.0902 51.8949 26.4024L52.2029 26.8126H58.871C59.436 26.8126 59.8968 27.2734 59.8968 27.8385V36.0618C59.15 36.0794 58.4657 36.1119 57.8451 36.1615V33.9936C57.8451 32.297 56.4641 30.916 54.7676 30.916H48.6124C46.9154 30.916 45.5349 32.297 45.5349 33.9936V38.081C45.2033 38.089 44.8732 38.097 44.509 38.097C44.1448 38.097 43.8142 38.089 43.4831 38.081V33.9936C43.4831 32.297 42.1022 30.916 40.4056 30.916H34.2505C32.5534 30.916 31.1729 32.297 31.1729 33.9936V36.1615C30.5523 36.1119 29.868 36.0794 29.1212 36.0618V27.8385C29.1212 27.2734 29.5815 26.8126 30.147 26.8126ZM35.2763 60.6658C35.2763 61.2313 34.8155 61.6917 34.2505 61.6917H30.147C29.5815 61.6917 29.1212 61.2313 29.1212 60.6658V59.64H35.2763V60.6658ZM59.8968 60.6658C59.8968 61.2313 59.436 61.6917 58.871 61.6917H54.7676C54.202 61.6917 53.7417 61.2313 53.7417 60.6658V59.64H59.8968V60.6658ZM61.9485 57.5882H27.0695V48.3556C27.0695 47.7905 27.5298 47.3297 28.0953 47.3297H60.9227C61.4877 47.3297 61.9485 47.7905 61.9485 48.3556V57.5882Z" fill="#B4C37C"/>
<path d="M29.1212 53.4849H59.8968V55.5366H29.1212V53.4849Z" fill="#B4C37C"/>
<path d="M23.3627 39.1228L18.5751 24.7609H4.78665L0 39.1228H8.60406V57.5882H7.5782C5.88113 57.5882 4.50064 58.9692 4.50064 60.6658V63.7433H18.8626V60.6658C18.8626 58.9692 17.4816 57.5882 15.785 57.5882H14.7592V39.1228H18.8626V45.4668C17.6714 45.8916 16.8109 47.0201 16.8109 48.3555C16.8109 50.0526 18.1914 51.4331 19.8885 51.4331C21.585 51.4331 22.966 50.0526 22.966 48.3555C22.966 47.0201 22.105 45.8916 20.9143 45.4668V39.1228H23.3627ZM19.8885 49.3814C19.3229 49.3814 18.8626 48.921 18.8626 48.3555C18.8626 47.7905 19.3229 47.3297 19.8885 47.3297C20.4535 47.3297 20.9143 47.7905 20.9143 48.3555C20.9143 48.921 20.4535 49.3814 19.8885 49.3814ZM6.26583 26.8126H17.0979L20.5171 37.0711H2.84564L6.26583 26.8126ZM16.8109 60.6658V61.6916H6.55235V60.6658C6.55235 60.1008 7.01268 59.6399 7.5782 59.6399H15.785C16.3501 59.6399 16.8109 60.1008 16.8109 60.6658ZM12.7075 57.5882H10.6558V39.1228H12.7075V57.5882Z" fill="#B4C37C"/>
</g>
<defs>
<clipPath id="clip0_4001_1040">
<rect width="64" height="64" fill="white"/>
</clipPath>
</defs>
</svg>
