<svg width="40" height="40" viewBox="0 0 40 40" fill="none" xmlns="http://www.w3.org/2000/svg">
<path opacity="0.2" d="M26.25 16.5625C28.8 18.3934 31.8607 19.3772 35 19.375V13.125C32.6794 13.125 30.4538 12.2031 28.8128 10.5622C27.1719 8.92124 26.25 6.69564 26.25 4.375H20V24.375C19.9999 25.1579 19.7898 25.9265 19.3915 26.6005C18.9932 27.2746 18.4213 27.8294 17.7354 28.207C17.0496 28.5847 16.275 28.7714 15.4925 28.7477C14.7099 28.724 13.948 28.4907 13.2863 28.0722C12.6247 27.6537 12.0874 27.0653 11.7306 26.3684C11.3739 25.6714 11.2106 24.8916 11.258 24.1101C11.3054 23.3286 11.5616 22.5741 11.9999 21.9254C12.4382 21.2766 13.0426 20.7574 13.75 20.4219V13.9219C11.7603 14.2786 9.91361 15.1955 8.42676 16.565C6.9399 17.9345 5.87457 19.6997 5.35582 21.6535C4.83707 23.6072 4.88642 25.6684 5.49808 27.5951C6.10974 29.5218 7.25833 31.234 8.80902 32.5308C10.3597 33.8275 12.2481 34.655 14.2527 34.9161C16.2572 35.1772 18.2946 34.8611 20.1257 34.0048C21.9568 33.1485 23.5057 31.7877 24.5905 30.0819C25.6753 28.3762 26.251 26.3964 26.25 24.375V16.5625Z" fill="white" fill-opacity="0.2"/>
<path d="M26.25 16.5625C28.8 18.3934 31.8607 19.3772 35 19.375V13.125C32.6794 13.125 30.4538 12.2031 28.8128 10.5622C27.1719 8.92124 26.25 6.69564 26.25 4.375H20V24.375C19.9999 25.1579 19.7898 25.9265 19.3915 26.6005C18.9932 27.2746 18.4213 27.8294 17.7354 28.207C17.0496 28.5847 16.275 28.7714 15.4925 28.7477C14.7099 28.724 13.948 28.4907 13.2863 28.0722C12.6247 27.6537 12.0874 27.0653 11.7306 26.3684C11.3739 25.6714 11.2106 24.8916 11.258 24.1101C11.3054 23.3286 11.5616 22.5741 11.9999 21.9254C12.4382 21.2766 13.0426 20.7574 13.75 20.4219V13.9219C11.7603 14.2786 9.91361 15.1955 8.42676 16.565C6.9399 17.9345 5.87457 19.6997 5.35582 21.6535C4.83707 23.6072 4.88642 25.6684 5.49808 27.5951C6.10974 29.5218 7.25833 31.234 8.80902 32.5308C10.3597 33.8275 12.2481 34.655 14.2527 34.9161C16.2572 35.1772 18.2946 34.8611 20.1257 34.0048C21.9568 33.1485 23.5057 31.7877 24.5905 30.0819C25.6753 28.3762 26.251 26.3964 26.25 24.375V16.5625Z" fill="white" fill-opacity="0.2" stroke="white" stroke-width="2" stroke-linecap="round" stroke-linejoin="round"/>
</svg>
