<svg width="32" height="33" viewBox="0 0 32 33" fill="none" xmlns="http://www.w3.org/2000/svg">
<g clip-path="url(#clip0_2213_4015)">
<path opacity="0.2" d="M21 13.2964C23.0387 14.7638 25.4881 15.5511 28 15.5464V10.5464C26.1435 10.5464 24.363 9.80889 23.0503 8.49613C21.7375 7.18338 21 5.4029 21 3.54639H16V20.0464C15.9997 20.6727 15.8314 21.2874 15.5126 21.8265C15.1938 22.3656 14.7362 22.8092 14.1875 23.1112C13.6389 23.4132 13.0192 23.5624 12.3932 23.5433C11.7672 23.5242 11.1578 23.3374 10.6285 23.0026C10.0993 22.6677 9.66962 22.1969 9.3843 21.6394C9.09898 21.0819 8.96849 20.458 9.00643 19.8329C9.04437 19.2077 9.24936 18.6042 9.60002 18.0853C9.95067 17.5664 10.4341 17.151 11 16.8826V11.5464C7.02125 12.2551 4 15.8639 4 20.0464C4 22.3007 4.89553 24.4627 6.48959 26.0568C8.08365 27.6509 10.2457 28.5464 12.5 28.5464C14.7543 28.5464 16.9163 27.6509 18.5104 26.0568C20.1045 24.4627 21 22.3007 21 20.0464V13.2964Z" fill="#6E8C03"/>
<path d="M21 13.2964C23.0387 14.7638 25.4881 15.5511 28 15.5464V10.5464C26.1435 10.5464 24.363 9.80889 23.0503 8.49613C21.7375 7.18338 21 5.4029 21 3.54639H16V20.0464C15.9997 20.6727 15.8314 21.2874 15.5126 21.8265C15.1938 22.3656 14.7362 22.8092 14.1875 23.1112C13.6389 23.4132 13.0192 23.5624 12.3932 23.5433C11.7672 23.5242 11.1578 23.3374 10.6285 23.0026C10.0993 22.6677 9.66962 22.1969 9.3843 21.6394C9.09898 21.0819 8.96849 20.458 9.00643 19.8329C9.04437 19.2077 9.24936 18.6042 9.60002 18.0853C9.95067 17.5664 10.4341 17.151 11 16.8826V11.5464C7.02125 12.2551 4 15.8639 4 20.0464C4 22.3007 4.89553 24.4627 6.48959 26.0568C8.08365 27.6509 10.2457 28.5464 12.5 28.5464C14.7543 28.5464 16.9163 27.6509 18.5104 26.0568C20.1045 24.4627 21 22.3007 21 20.0464V13.2964Z" stroke="#6E8C03" stroke-width="2" stroke-linecap="round" stroke-linejoin="round"/>
</g>
<defs>
<clipPath id="clip0_2213_4015">
<rect width="32" height="32" fill="white" transform="translate(0 0.546387)"/>
</clipPath>
</defs>
</svg>
