<svg width="64" height="64" viewBox="0 0 64 64" fill="none" xmlns="http://www.w3.org/2000/svg">
<path d="M17.984 58.5377C17.4157 58.5328 16.8552 58.4047 16.3412 58.1621C15.8272 57.9196 15.3719 57.5684 15.0068 57.1328C14.6418 56.6972 14.3755 56.1876 14.2266 55.6391C14.0776 55.0906 14.0494 54.5163 14.144 53.9559C14.18 53.7402 14.2277 53.5265 14.2867 53.3159C14.4154 52.858 14.6274 52.4278 14.912 52.0468L21.44 43.3281C21.7296 42.9413 21.909 42.4832 21.959 42.0026L22.0486 34.7156C22.0518 34.4461 22.1611 34.1888 22.3528 33.9993C22.5445 33.8099 22.8032 33.7037 23.0726 33.7037H23.0854C23.3569 33.7071 23.6159 33.8182 23.8056 34.0125C23.9952 34.2068 24.0999 34.4684 24.0966 34.7399L24.007 42.0711C24.007 42.0973 24.007 42.1242 24.0032 42.1511C23.9238 43.0221 23.6043 43.854 23.0803 44.5543L16.5517 53.273C16.4166 53.4524 16.3155 53.655 16.2534 53.8708C16.215 54.0099 16.1836 54.1509 16.1594 54.2932C16.1018 54.6225 16.1338 54.9613 16.2521 55.274C16.3705 55.5867 16.5708 55.8618 16.832 56.0705C17.0849 56.2786 17.3891 56.415 17.7128 56.4654C18.0365 56.5157 18.3678 56.4781 18.672 56.3565L18.7066 56.3418L18.7315 56.3322C19.0347 56.2051 19.2982 55.9989 19.4944 55.7351L27.2928 45.3402L28.119 41.6225C28.1482 41.4912 28.2029 41.3669 28.2801 41.2568C28.3573 41.1467 28.4554 41.0528 28.5689 40.9806C28.6823 40.9084 28.8089 40.8593 28.9413 40.836C29.0738 40.8127 29.2095 40.8157 29.3408 40.8449C29.4721 40.874 29.5963 40.9288 29.7065 41.0059C29.8166 41.0831 29.9104 41.1812 29.9826 41.2947C30.0548 41.4081 30.104 41.5347 30.1273 41.6672C30.1506 41.7996 30.1476 41.9353 30.1184 42.0666L29.2442 46.0001C29.2128 46.1422 29.1513 46.276 29.0637 46.3924L21.1277 56.9652C20.7095 57.5235 20.1489 57.9592 19.5046 58.2266L19.4848 58.2349L19.417 58.2625C18.9607 58.443 18.4747 58.5363 17.984 58.5377Z" fill="#B4C37C"/>
<path d="M23.7158 34.9792C23.5516 34.9788 23.3899 34.9389 23.2443 34.8628C23.0987 34.7867 22.9736 34.6767 22.8794 34.5421C22.7853 34.4075 22.7249 34.2522 22.7034 34.0894C22.6819 33.9265 22.6999 33.7609 22.7558 33.6064L27.8048 19.666C28.0881 18.8685 28.5627 18.1526 29.1868 17.581C29.8109 17.0094 30.5657 16.5995 31.385 16.3872C32.672 16.0602 33.945 16.2496 35.1655 16.9517C36.01 17.4446 36.7288 18.1265 37.2653 18.944L41.5725 25.4381C41.65 25.5561 41.7556 25.653 41.8798 25.72C42.0041 25.7871 42.143 25.8222 42.2842 25.8221H47.271C48.3878 25.8221 49.4394 26.3949 50.0154 27.3172C50.6426 28.322 50.5555 29.4599 49.7773 30.4397C49.4728 30.8217 49.0856 31.1297 48.6448 31.3403C48.204 31.5509 47.7212 31.6588 47.2326 31.6557H39.0349C37.321 31.6557 35.7274 30.8352 34.7725 29.4612C34.713 29.376 34.6534 29.2845 34.5965 29.1898C34.3921 28.851 34.189 28.5127 33.9872 28.1748C33.7653 27.8036 33.5424 27.4324 33.3184 27.0612C32.9178 26.3962 32.6061 25.8893 32.3078 25.4176L31.6301 24.3437C31.5491 24.2304 31.492 24.1017 31.4624 23.9655C31.4329 23.8293 31.4314 23.6885 31.4582 23.5518C31.4849 23.415 31.5393 23.2851 31.6179 23.1701C31.6966 23.0551 31.7979 22.9574 31.9157 22.8829C32.0335 22.8084 32.1652 22.7587 32.3028 22.7369C32.4405 22.715 32.5811 22.7216 32.7161 22.756C32.8512 22.7904 32.9777 22.852 33.0881 22.9371C33.1985 23.0221 33.2904 23.1288 33.3581 23.2506L34.0397 24.32C34.345 24.8039 34.6637 25.3216 35.072 25.9981C35.2973 26.3706 35.52 26.745 35.7446 27.1181C35.9456 27.4548 36.1472 27.7912 36.3495 28.1274C36.3834 28.1831 36.4186 28.2368 36.4531 28.2868C36.7454 28.6981 37.1329 29.0327 37.5824 29.2619C38.032 29.4912 38.5303 29.6083 39.0349 29.6032H47.232C47.4121 29.6042 47.5901 29.5648 47.753 29.4881C47.9158 29.4114 48.0595 29.2992 48.1735 29.1597C48.4742 28.7815 48.3981 28.5895 48.2771 28.3956C48.1675 28.2295 48.0178 28.0938 47.8418 28.001C47.6659 27.9081 47.4693 27.8611 47.2704 27.8644H42.2842C41.805 27.8651 41.3332 27.7469 40.911 27.5204C40.4887 27.2938 40.1293 26.9661 39.865 26.5664L35.5584 20.0749C35.197 19.5223 34.7125 19.0609 34.1427 18.7271C33.3888 18.2938 32.6502 18.178 31.8867 18.3719C31.3915 18.5023 30.9358 18.7521 30.5594 19.0992C30.183 19.4464 29.8973 19.8805 29.7274 20.3636L24.6784 34.304C24.6068 34.5018 24.4759 34.6728 24.3037 34.7936C24.1315 34.9144 23.9262 34.9792 23.7158 34.9792Z" fill="#B4C37C"/>
<path d="M36.5478 58.3149C36.1481 58.3142 35.7512 58.2471 35.3734 58.1165C33.4656 57.4611 32.3885 56.2573 32.4192 54.8147L32.4576 53.0759V48.3399C32.457 47.7041 32.2301 47.0892 31.8176 46.6055L22.2886 35.3882C22.2015 35.2857 22.1354 35.167 22.0942 35.039C22.0529 34.911 22.0373 34.7761 22.0482 34.642C22.059 34.5079 22.0962 34.3773 22.1576 34.2576C22.2189 34.1379 22.3033 34.0314 22.4058 33.9443C22.5083 33.8572 22.6269 33.7911 22.7549 33.7499C22.883 33.7086 23.0179 33.693 23.1519 33.7039C23.286 33.7147 23.4166 33.7519 23.5363 33.8133C23.656 33.8746 23.7625 33.959 23.8496 34.0615L33.3811 45.2787C34.1068 46.1334 34.5053 47.218 34.5056 48.3392V53.1098L34.4666 54.8589C34.4512 55.5776 35.6666 56.0519 36.039 56.1799C36.3727 56.302 36.7399 56.296 37.0694 56.1632C37.9322 55.7959 38.0531 54.6592 38.0646 54.5203V44.48C38.0653 43.8099 37.814 43.1641 37.3606 42.6707L32.576 37.4464C31.8714 36.679 31.3866 35.736 31.1726 34.7164C30.9587 33.6968 31.0234 32.6384 31.36 31.6525L33.2326 26.1722C33.3205 25.9152 33.5068 25.7036 33.7506 25.584C33.9945 25.4644 34.2758 25.4466 34.5328 25.5344C34.7898 25.6223 35.0013 25.8086 35.121 26.0524C35.2406 26.2962 35.2584 26.5776 35.1706 26.8346L33.2979 32.3149C33.0797 32.9524 33.0374 33.637 33.1755 34.2966C33.3136 34.9561 33.6269 35.5663 34.0826 36.0627L38.8678 41.2845C39.6694 42.1555 40.1138 43.2963 40.1126 44.48V54.5523V54.5978C40.071 55.5424 39.552 57.3325 37.8726 58.0474C37.4537 58.2254 37.003 58.3164 36.5478 58.3149Z" fill="#B4C37C"/>
<path d="M22.2381 36.1165C22.0063 36.1165 21.7761 36.0778 21.5571 36.0019C21.3363 35.9251 21.1168 35.847 20.8966 35.769C20.4403 35.6064 19.9686 35.4394 19.5072 35.289L16.583 34.3386C16.4185 34.2839 16.251 34.2388 16.0813 34.2035C14.9466 33.9693 14.1811 33.5078 13.808 32.8326C13.6731 32.5859 13.5932 32.313 13.5739 32.0324C13.5546 31.7519 13.5962 31.4706 13.696 31.2077L13.7037 31.1872C13.7363 31.1002 13.7677 31.0182 13.792 30.9414L18.7379 15.9238C18.8755 15.5053 18.9862 15.0752 19.1034 14.6195L19.1354 14.4966C19.2649 14.0011 19.5558 13.5629 19.9622 13.2512C20.2831 13.0051 20.6563 12.8361 21.0529 12.7573C21.4496 12.6785 21.859 12.692 22.2496 12.7968L27.1258 14.0851C28.4058 14.352 29.3267 14.9587 29.8643 15.8893C30.7206 17.3715 30.2042 19.0387 30.1421 19.2237L28.199 18.576V18.583C28.2842 18.3136 28.4307 17.488 28.0883 16.9056C27.8509 16.5024 27.3798 16.2266 26.6886 16.0858C26.6694 16.0819 26.6502 16.0774 26.6317 16.0723L21.7286 14.777C21.6436 14.7519 21.5538 14.7468 21.4665 14.7622C21.3791 14.7775 21.2964 14.8128 21.225 14.8653C21.1737 14.8985 21.1364 14.9492 21.12 15.008L21.0886 15.1302C20.9683 15.5981 20.8442 16.0813 20.6848 16.5638L15.735 31.5821C15.7018 31.6845 15.6666 31.7792 15.6326 31.8714C15.7094 31.9354 15.9354 32.0819 16.4954 32.1978C16.7389 32.2484 16.9795 32.3125 17.216 32.3898L20.1402 33.344C20.6285 33.5027 21.1136 33.6749 21.5827 33.8413C21.7986 33.9181 22.0147 33.9945 22.231 34.0704C22.2746 34.0704 22.5158 33.9552 22.8435 33.4214C22.9386 33.2668 23.0731 33.1401 23.2333 33.0545C23.3934 32.969 23.5734 32.9275 23.7549 32.9344C23.8189 32.9344 30.1549 33.1046 32.3859 28.6906C32.4465 28.5705 32.5302 28.4636 32.6321 28.3758C32.734 28.2881 32.8522 28.2213 32.98 28.1793C33.1077 28.1372 33.2425 28.1207 33.3766 28.1308C33.5107 28.1408 33.6415 28.1772 33.7616 28.2378C33.8817 28.2984 33.9886 28.382 34.0763 28.4839C34.1641 28.5859 34.2309 28.7041 34.2729 28.8318C34.315 28.9596 34.3314 29.0943 34.3214 29.2285C34.3114 29.3626 34.275 29.4934 34.2144 29.6134C33.0323 31.9533 30.8224 33.6243 27.8144 34.4448C26.6525 34.7576 25.4586 34.9358 24.256 34.976C23.5373 35.8912 22.7949 36.1165 22.2381 36.1165Z" fill="#B4C37C"/>
<path d="M37.3018 16.0448C36.2468 16.0443 35.2157 15.731 34.3388 15.1445C33.4619 14.5581 32.7786 13.7248 32.3752 12.75C31.9719 11.7752 31.8666 10.7027 32.0727 9.66812C32.2788 8.63352 32.7871 7.68326 33.5332 6.93748C34.2794 6.19171 35.2299 5.68391 36.2646 5.47829C37.2993 5.27267 38.3717 5.37846 39.3463 5.78228C40.3209 6.1861 41.1538 6.86983 41.7399 7.74701C42.3259 8.62419 42.6387 9.65544 42.6387 10.7104C42.6368 12.125 42.0739 13.4812 41.0733 14.4812C40.0728 15.4813 38.7164 16.0436 37.3018 16.0448ZM37.3018 7.42398C36.6519 7.42448 36.0167 7.61766 35.4766 7.97908C34.9365 8.3405 34.5157 8.85395 34.2673 9.4545C34.019 10.0551 33.9543 10.7158 34.0814 11.3531C34.2085 11.9904 34.5217 12.5758 34.9814 13.0351C35.4411 13.4945 36.0267 13.8072 36.6641 13.9338C37.3015 14.0604 37.9622 13.9952 38.5626 13.7464C39.1629 13.4976 39.676 13.0763 40.037 12.5359C40.398 11.9955 40.5907 11.3603 40.5907 10.7104C40.5895 9.83869 40.2426 9.00308 39.6259 8.38695C39.0093 7.77081 38.1734 7.42449 37.3018 7.42398Z" fill="#B4C37C"/>
<path d="M47.2211 58.624C46.9495 58.624 46.6891 58.5161 46.497 58.324C46.305 58.132 46.1971 57.8715 46.1971 57.6V30.6297C46.1971 30.3581 46.305 30.0977 46.497 29.9056C46.6891 29.7136 46.9495 29.6057 47.2211 29.6057C47.4927 29.6057 47.7532 29.7136 47.9452 29.9056C48.1372 30.0977 48.2451 30.3581 48.2451 30.6297V57.6C48.2451 57.8715 48.1372 58.132 47.9452 58.324C47.7532 58.5161 47.4927 58.624 47.2211 58.624Z" fill="#B4C37C"/>
<path d="M47.2211 27.8669C46.9495 27.8669 46.6891 27.759 46.497 27.567C46.305 27.3749 46.1971 27.1145 46.1971 26.8429V21.2397C46.1971 20.9681 46.305 20.7077 46.497 20.5156C46.6891 20.3236 46.9495 20.2157 47.2211 20.2157C47.4927 20.2157 47.7532 20.3236 47.9452 20.5156C48.1372 20.7077 48.2451 20.9681 48.2451 21.2397V26.8429C48.2451 27.1145 48.1372 27.3749 47.9452 27.567C47.7532 27.759 47.4927 27.8669 47.2211 27.8669Z" fill="#B4C37C"/>
<path d="M28.1203 22.8192C28.0246 22.8192 27.9294 22.8058 27.8374 22.7795L18.4819 20.096C18.352 20.0595 18.2306 19.9977 18.1246 19.9142C18.0187 19.8306 17.9303 19.7269 17.8646 19.6091C17.7988 19.4912 17.757 19.3615 17.7416 19.2275C17.7261 19.0934 17.7373 18.9577 17.7745 18.8279C17.8117 18.6982 17.8742 18.5771 17.9583 18.4717C18.0424 18.3662 18.1466 18.2783 18.2648 18.2132C18.383 18.1481 18.5129 18.107 18.647 18.0923C18.7812 18.0776 18.9169 18.0895 19.0464 18.1274L28.4019 20.8109C28.6392 20.879 28.8439 21.0304 28.9783 21.2374C29.1128 21.4444 29.168 21.693 29.1337 21.9374C29.0994 22.1819 28.978 22.4057 28.7918 22.5677C28.6056 22.7297 28.3671 22.8191 28.1203 22.8192Z" fill="#B4C37C"/>
</svg>
